<svg xmlns="http://www.w3.org/2000/svg" xmlns:xlink="http://www.w3.org/1999/xlink" width="58" height="58" viewBox="0 0 58 58">
  <defs>
    <clipPath id="clip-path">
      <rect id="Rectangle_364" data-name="Rectangle 364" width="58" height="58" rx="6" transform="translate(373 306)" fill="#f3f6f9"/>
    </clipPath>
  </defs>
  <g id="Mask_Group_1" data-name="Mask Group 1" transform="translate(-373 -306)" clip-path="url(#clip-path)">
    <g id="app-icon_1_" data-name="app-icon (1)" transform="translate(373.019 306)">
      <path id="Path_215" data-name="Path 215" d="M14.606,0H43.336A14.623,14.623,0,0,1,57.961,14.606V43.394A14.607,14.607,0,0,1,43.355,58H14.606A14.6,14.6,0,0,1,0,43.394V14.606A14.619,14.619,0,0,1,14.606,0Z" fill="#f3f6f9"/>
      <g id="Group_935" data-name="Group 935" transform="translate(12.552 8.269)">
        <g id="Group_920" data-name="Group 920">
          <g id="Group_915" data-name="Group 915">
            <g id="Group_911" data-name="Group 911" transform="translate(9.01 1.121)">
              <path id="Path_216" data-name="Path 216" d="M25.075,15.728c-.116-.155-.213-.309-.328-.464a.714.714,0,0,1-.116-.406V13.584c-1.333-1.121-2.492-2.106-3.555-3.014a.535.535,0,0,1-.174.019h0a.589.589,0,0,1-.464-.232c-.116-.135-.251-.27-.386-.406l-.174-.174-.541-.56L20.38,9c.193-.039.367-.077.541-.116a25.309,25.309,0,0,1,4-.425c.309,0,.6-.019.908-.019a23.3,23.3,0,0,1,3.439.232c.483.077.947.193,1.41.309.193.039.386.1.6.135a1.331,1.331,0,0,1,.155.058l.039.019.618.232-.6.618c-.155.174-.328.328-.483.5a.539.539,0,0,1-.386.155.425.425,0,0,1-.155-.019c-.077-.019-.155-.039-.213-.058l-.174-.058c-1.14.966-2.338,1.971-3.555,3.014v1.256a.926.926,0,0,1-.174.5c-.1.135-.213.27-.328.406-.039.058-.1.1-.135.155l-.348.425Z" transform="translate(-18.468 -8.039)" fill="#fcba2e"/>
              <path id="Path_217" data-name="Path 217" d="M25.949,8.945a21.852,21.852,0,0,1,3.362.232c.657.1,1.314.29,1.971.425a1.332,1.332,0,0,0,.155.058c-.213.213-.406.425-.618.638a.116.116,0,0,1-.077.019H30.7c-.155-.039-.328-.1-.483-.135h-.058a.27.27,0,0,0-.174.058c-1.237,1.043-2.473,2.087-3.69,3.13a.248.248,0,0,0-.077.193v1.314a.367.367,0,0,1-.1.251c-.135.174-.29.348-.444.541-.155-.193-.29-.406-.425-.6a.232.232,0,0,1-.039-.155V13.6a.283.283,0,0,0-.116-.251L21.5,10.278a.34.34,0,0,0-.251-.116.245.245,0,0,0-.116.019.116.116,0,0,1-.077.019.2.2,0,0,1-.155-.077c-.174-.193-.367-.386-.58-.6.29-.058.541-.116.811-.155a24.355,24.355,0,0,1,3.941-.425h.869m0-.85c-.29,0-.58,0-.908.019a26.283,26.283,0,0,0-4.077.425c-.174.039-.367.077-.56.116l-.27.058-1.546.309,1.082,1.14a1.742,1.742,0,0,1,.174.193c.135.135.251.27.367.386a1.018,1.018,0,0,0,.792.367h.039c.985.85,2.029,1.739,3.246,2.763v1.082a1,1,0,0,0,.193.638c.116.155.213.309.328.464l.116.155.638.889.715-.831a.968.968,0,0,1,.135-.155c.116-.135.232-.27.348-.425a1.548,1.548,0,0,0,.27-.753V13.871c1.1-.947,2.183-1.855,3.227-2.744.058.019.135.039.193.058a1.131,1.131,0,0,0,.251.039.978.978,0,0,0,.7-.27c.174-.174.328-.328.483-.5l.155-.155.927-.947-1.256-.444c-.019,0-.019,0-.039-.019a1.611,1.611,0,0,0-.232-.077c-.193-.039-.386-.1-.58-.135-.464-.116-.947-.232-1.449-.309a18.475,18.475,0,0,0-3.458-.27Z" transform="translate(-18.588 -8.095)" fill="#fbb92c"/>
            </g>
            <g id="Group_912" data-name="Group 912">
              <path id="Path_218" data-name="Path 218" d="M27.148,47.8a13.852,13.852,0,0,1-5.873-1.314,13.291,13.291,0,0,1-3.71-2.57A13.855,13.855,0,0,1,16.135,25.6a1.062,1.062,0,0,1-.309.058.792.792,0,0,1-.213-.019.7.7,0,0,1-.464.155c-.425,0-.85.019-1.256.039l-.232.019h-.019a.245.245,0,0,1-.116.019h-.1a.636.636,0,0,1-.638-.6.508.508,0,0,0-.232-.425c-.213-.155-.444-.309-.657-.464l-.386-.27-.039-.1a2.02,2.02,0,0,1-.213-1.41c.039-.193.077-.386.135-.58.1-.483.213-.985.348-1.488a1.671,1.671,0,0,1,.927-1.082l.058-.077.464-.792c.386-.638.753-1.294,1.14-1.932.193-.348.386-.715.58-1.063.039-.077.1-.174.135-.251a2.534,2.534,0,0,1-.386-.908,2.613,2.613,0,0,1,.406-2.106,6.581,6.581,0,0,1,1.6-1.584.942.942,0,0,1,.135-.058c0-.058-.019-.116-.019-.174a6.351,6.351,0,0,0-.444-1.333l-.1-.232a.5.5,0,0,1,.1-.657l.019-.019a.6.6,0,0,1,.483-.232A.425.425,0,0,1,17,8.056a3.14,3.14,0,0,1,1,.464,6.326,6.326,0,0,1,1.063.889,3.848,3.848,0,0,0-.406-.792l-.174-.251.58-.753L19.4,7.8l.174.116c.135.077.29.174.425.251a7.332,7.332,0,0,1,2.2,2.338l.019.019.039.039.232-.193.27.29.155.155c.1.116.193.213.309.328L24,11.92l.56.56a11.752,11.752,0,0,1,1.526,1.932c.251.367.5.753.753,1.121h0c.116-.135.213-.27.309-.406a18.541,18.541,0,0,1,2.879-2.9c.309-.251.618-.522.927-.792l.425-.367.174-.155c0-.019.019-.019.019-.039.039-.077.1-.174.155-.27a2.3,2.3,0,0,1,.29-.348.7.7,0,0,1,.483-.251.444.444,0,0,1,.27.077l.039-.039a9.869,9.869,0,0,1,2.048-1.72c.213-.116.425-.213.638-.309l.348-.174a.787.787,0,0,1,.348-.1.617.617,0,0,1,.464.213l.232.251-.174.29c-.058.1-.135.193-.193.29-.116.155-.213.309-.309.464a11.737,11.737,0,0,1,1.526-.5l.135-.039c.039,0,.058-.019.1-.019h.019a.682.682,0,0,1,.27-.058.574.574,0,0,1,.56.444l.077.27-.213.174a1.925,1.925,0,0,0-.213.193c-.155.135-.29.251-.425.386a2.441,2.441,0,0,0-.638,1.179,9.192,9.192,0,0,1,1.662,1.546.512.512,0,0,1,.1.116.84.84,0,0,0,.116.135,1.746,1.746,0,0,1,.464,1.6,3.343,3.343,0,0,1-.155.522c-.019.039-.019.077-.039.1l.309.6c.367.753.753,1.526,1.14,2.28.174.348.386.676.58,1,.135.232.27.444.386.676a.743.743,0,0,1,.1.367v.058l.039.328.232.522c.232.522.464,1.063.7,1.584a2.385,2.385,0,0,1,.155.773.7.7,0,0,1-.1.425.116.116,0,0,0-.019.077,2.089,2.089,0,0,1-.522.869l-.019.019-.116.077-.174.116a.894.894,0,0,0-.406.6.6.6,0,0,1-.56.483.535.535,0,0,0-.174.019,2.1,2.1,0,0,1-.348.019h0a1.188,1.188,0,0,1-.27-.019,1.878,1.878,0,0,0-.348-.019,3.509,3.509,0,0,0-.618.058l-.116.019-.213-.1a.657.657,0,0,1-.193.019,1.492,1.492,0,0,1-.29-.039,12.728,12.728,0,0,1,.869,1.468,14.051,14.051,0,0,1,1.294,3.9,13.381,13.381,0,0,1,.193,2.9,13.852,13.852,0,0,1-8.81,12.4,13.6,13.6,0,0,1-3.845.889A5.631,5.631,0,0,1,27.148,47.8ZM16.927,24.42a1.672,1.672,0,0,0-.135.328c-.019.019-.019.058-.039.077.116-.116.213-.251.328-.367L17,24.266A1.147,1.147,0,0,1,16.927,24.42Zm1.352-1.1a15.349,15.349,0,0,1,1.99-1.391c-.058-.193-.116-.386-.155-.58a2.106,2.106,0,0,1-.5.058,1.768,1.768,0,0,1-.309-.019c-.406.425-.792.85-1.2,1.275l-.155.174ZM34.2,21.967a15.808,15.808,0,0,1,1.758,1.217,8.664,8.664,0,0,0-1.507-1.777Z" transform="translate(-10.758 -7.051)" fill="#fcba2e"/>
              <path id="Path_219" data-name="Path 219" d="M19.193,8.268c.193.116.406.232.58.348a7.029,7.029,0,0,1,2.067,2.2c.019.039.039.058.058.1.116.1.251.193.367.29.058-.039.116-.1.193-.155.155.155.309.328.464.483l1.333,1.333a12.519,12.519,0,0,1,1.488,1.855c.367.541.715,1.082,1.063,1.623l.7-.869a17.585,17.585,0,0,1,2.8-2.821c.464-.386.908-.753,1.352-1.14a2.447,2.447,0,0,1,.251-.213,1.835,1.835,0,0,1,.193-.328c.077-.116.155-.213.232-.309.077-.077.116-.116.174-.116s.116.058.174.174c.116-.058.232-.1.348-.155a9.774,9.774,0,0,1,2.048-1.739c.309-.174.638-.328.966-.483a.491.491,0,0,1,.135-.039.176.176,0,0,1,.155.077,9.74,9.74,0,0,0-.6.947,9.637,9.637,0,0,0-.444,1.024.067.067,0,0,1,.039.019c.174-.1.328-.213.5-.309a8.463,8.463,0,0,1,2.145-.811c.058-.019.1-.019.155-.039a.21.21,0,0,1,.1-.019c.077,0,.116.058.155.135-.213.193-.444.386-.657.58a2.854,2.854,0,0,0-.753,1.43c-.039.251-.039.27.174.425a9.706,9.706,0,0,1,1.6,1.488,3.357,3.357,0,0,0,.251.29,1.3,1.3,0,0,1,.328,1.217,4.328,4.328,0,0,1-.213.657.123.123,0,0,0,0,.116c.5,1,.985,2.009,1.507,2.995.309.58.657,1.14.966,1.7a1.283,1.283,0,0,1,.058.29c.019.116.039.251.058.367.309.715.638,1.43.947,2.164a2.343,2.343,0,0,1,.135.638,1.173,1.173,0,0,1-.1.348,1.36,1.36,0,0,1-.406.676c-.1.058-.174.116-.27.174a1.386,1.386,0,0,0-.6.869c-.019.1-.077.155-.155.155a4.067,4.067,0,0,1-.483.039.657.657,0,0,1-.193-.019,2.882,2.882,0,0,0-.406-.039,4,4,0,0,0-.676.058c-.077-.039-.155-.058-.232-.1a.97.97,0,0,1-.232.039.889.889,0,0,1-.638-.348,6.345,6.345,0,0,1-.386-.6,2.57,2.57,0,0,0-.27-.367,3.454,3.454,0,0,0-.27-.251h-.039l-.232.638a.16.16,0,0,0,.039.155,14.258,14.258,0,0,1,1.951,2.84,13.443,13.443,0,0,1,1.449,6.569A13.418,13.418,0,0,1,32.1,46.542a13.618,13.618,0,0,1-3.729.869c-.406.039-.792.058-1.2.058a13.4,13.4,0,0,1-5.7-1.275A12.758,12.758,0,0,1,17.879,43.7a13.371,13.371,0,0,1-3.652-6.2,12.435,12.435,0,0,1-.425-2.782,13.277,13.277,0,0,1,3.652-9.911c.039-.058.1-.1.135-.155l-.464-1.217c-.019-.019-.058-.039-.077-.058-.174.328-.328.638-.5.966-.116.213-.193.444-.309.676a.468.468,0,0,1-.406.309,1,1,0,0,1-.213-.039.21.21,0,0,0-.1-.019.146.146,0,0,0-.135.077.287.287,0,0,1-.251.116l-1.526.058a.455.455,0,0,0-.155.039h-.039a.2.2,0,0,1-.213-.193.991.991,0,0,0-.406-.753c-.309-.232-.638-.464-.947-.676a1.568,1.568,0,0,1-.174-1.1c.155-.7.29-1.391.464-2.067a1.2,1.2,0,0,1,.676-.792l.116-.058.116-.174c.541-.908,1.082-1.816,1.6-2.744.29-.522.56-1.043.85-1.565a2.248,2.248,0,0,1-.464-.966,2.118,2.118,0,0,1,.348-1.758,6.482,6.482,0,0,1,1.507-1.488c.019,0,.039-.019.058-.019a.116.116,0,0,1,.077.019c.039,0,.058.039.077.058a.366.366,0,0,0,.116.077c-.019-.29-.019-.541-.058-.792a7.377,7.377,0,0,0-.58-1.662c-.019-.058-.077-.116,0-.174.058-.058.1-.135.193-.135h.058A2.55,2.55,0,0,1,17.705,9a7.532,7.532,0,0,1,1.681,1.642c.058.058.1.1.174.1a.116.116,0,0,0,.077-.019,3.832,3.832,0,0,0-.7-2.222.5.5,0,0,0,.251-.232M36.658,24.44c.077-.193.135-.367.193-.541a.019.019,0,0,1,.019.019h0a.019.019,0,0,1-.019-.019c-.058-.1-.1-.193-.155-.29,0-.019-.019-.019-.019-.039a8.308,8.308,0,0,0-2.048-2.512,1.88,1.88,0,0,0-.29-.213c-.232.483-.444.927-.657,1.391a12.921,12.921,0,0,1,2.975,2.2m-16.983-3.4A2.129,2.129,0,0,1,19.328,21H19.27a.146.146,0,0,0-.135.077c-.541.6-1.1,1.179-1.662,1.777h0l.058.116c.251.348.483.7.734,1.063a14.994,14.994,0,0,1,2.492-1.777.257.257,0,0,0,.058-.1c-.116-.425-.232-.85-.367-1.294a1.87,1.87,0,0,1-.773.174m-1.43,2.995h0M18.98,7.129l-.464.6-.155.213-.193.232a3.27,3.27,0,0,0-1.043-.444,1.3,1.3,0,0,0-.27-.039,1.075,1.075,0,0,0-.792.367h0a.955.955,0,0,0-.174,1.159c.039.077.058.135.1.213a4.548,4.548,0,0,1,.386,1.121,7.166,7.166,0,0,0-1.623,1.623,3.091,3.091,0,0,0-.483,2.434,3.323,3.323,0,0,0,.309.831c0,.019-.019.019-.019.039q-.29.551-.58,1.043c-.367.638-.753,1.294-1.121,1.932-.155.251-.29.5-.444.753A2.058,2.058,0,0,0,11.368,20.5q-.2.753-.348,1.507c-.039.193-.077.386-.135.58a2.447,2.447,0,0,0,.232,1.7l.1.193.174.116.29.213c.213.155.444.328.657.483.039.039.039.039.039.077a1.082,1.082,0,0,0,1.082,1.024.425.425,0,0,0,.155-.019c.058,0,.1-.019.135-.019h.193c.406-.019.831-.039,1.256-.039h.019a14.186,14.186,0,0,0-2.26,8.443,13.236,13.236,0,0,0,.464,2.975A14.327,14.327,0,0,0,17.3,44.34a13.7,13.7,0,0,0,3.825,2.647,14.086,14.086,0,0,0,6.047,1.352c.425,0,.85-.019,1.256-.058a13.773,13.773,0,0,0,3.961-.927,14.291,14.291,0,0,0,6.511-5.12,14.08,14.08,0,0,0,2.57-7.67,14.545,14.545,0,0,0-1.546-7.013c-.135-.251-.27-.5-.406-.734h.039c.213-.019.386-.058.56-.058a1.275,1.275,0,0,1,.27.019,2.1,2.1,0,0,0,.348.019c.135,0,.27-.019.386-.019.058,0,.1-.019.155-.019a1.025,1.025,0,0,0,.947-.811.562.562,0,0,1,.213-.348c.058-.039.135-.077.193-.116l.077-.058.058-.039.058-.039a2.369,2.369,0,0,0,.657-1.043v-.039c0-.019.019-.019.019-.039a1.3,1.3,0,0,0,.116-.618,2.952,2.952,0,0,0-.193-.908c-.232-.541-.464-1.082-.7-1.584-.077-.155-.135-.309-.213-.483l-.039-.251v-.058a1.563,1.563,0,0,0-.155-.541l-.406-.7c-.193-.348-.386-.657-.56-.985-.386-.734-.773-1.507-1.14-2.26A4.642,4.642,0,0,1,40,15.4a3.051,3.051,0,0,0,.155-.541,2.114,2.114,0,0,0-.58-1.99.421.421,0,0,1-.077-.1c-.039-.039-.077-.1-.116-.135a11.733,11.733,0,0,0-1.488-1.43,2.19,2.19,0,0,1,.444-.715c.116-.116.251-.232.386-.348a2.115,2.115,0,0,0,.213-.193l.406-.367-.155-.522a1,1,0,0,0-.966-.753.921.921,0,0,0-.386.077c-.039,0-.077.019-.116.019l-.135.039c-.116.039-.232.058-.348.1l.174-.27-.464-.5a1.041,1.041,0,0,0-.792-.348,1.122,1.122,0,0,0-.541.135l-.348.174c-.213.1-.425.213-.657.328A9.6,9.6,0,0,0,32.64,9.679a.48.48,0,0,0-.155-.019,1.083,1.083,0,0,0-.811.386c-.116.135-.232.27-.328.406-.058.1-.116.193-.155.27l-.116.116-.348.386c-.309.251-.618.522-.927.773a18.542,18.542,0,0,0-2.879,2.9c-.135-.213-.29-.425-.425-.638a13.234,13.234,0,0,0-1.584-1.99l-.56-.56c-.251-.251-.522-.5-.773-.773-.1-.1-.193-.193-.29-.309a1.166,1.166,0,0,0-.155-.155l-.541-.58-.193.155A7.748,7.748,0,0,0,20.275,7.9c-.155-.1-.29-.193-.444-.27l-.174-.116-.676-.386Zm.386,14.954.174-.174h.1c-.077.058-.174.116-.27.174Z" transform="translate(-10.82 -7.129)" fill="#fbb92c"/>
            </g>
            <g id="Group_913" data-name="Group 913" transform="translate(27.719 17.949)">
              <path id="Path_220" data-name="Path 220" d="M35.426,25.607a1.331,1.331,0,0,0-.077-.193,3.935,3.935,0,0,0-.174-.425.913.913,0,0,1,.1-1c.1-.135.174-.27.27-.425.039-.077.1-.155.135-.232l.174-.309.328.116h.058a.21.21,0,0,0,.1-.019.775.775,0,0,1,.29-.058.912.912,0,0,1,.6.251l.29.251-.193.328-1.6,2.473Z" transform="translate(-34.66 -22.535)" fill="#fcba2e"/>
              <path id="Path_221" data-name="Path 221" d="M36.68,23.606a.6.6,0,0,1,.348.174c-.386.6-.773,1.179-1.14,1.758-.077-.193-.155-.425-.251-.638a.5.5,0,0,1,.058-.56c.155-.213.27-.444.425-.7a.686.686,0,0,0,.193.039.6.6,0,0,0,.251-.058.245.245,0,0,1,.116-.019m-.947-1-.367.6c-.039.077-.1.155-.135.232a2.26,2.26,0,0,1-.232.386,1.359,1.359,0,0,0-.135,1.449c.058.116.1.251.155.367a.579.579,0,0,0,.077.193l.6,1.584.927-1.43.676-1.024.464-.734.425-.657-.6-.483h-.019a1.354,1.354,0,0,0-.869-.367,1.339,1.339,0,0,0-.386.058l-.58-.174Z" transform="translate(-34.716 -22.602)" fill="#fbb92c"/>
            </g>
            <g id="Group_914" data-name="Group 914" transform="translate(2.815 17.678)">
              <path id="Path_222" data-name="Path 222" d="M14.569,24.551a.512.512,0,0,1-.1-.116l-.638-.657a.52.52,0,0,1-.135-.657.564.564,0,0,1,.541-.348,1.874,1.874,0,0,0,.328-.019c.1,0,.213-.019.309-.019h0a.689.689,0,0,1,.444.155c.116.1.232.213.328.309l.406.386-1.063,1.391Z" transform="translate(-13.185 -22.31)" fill="#fcba2e"/>
              <path id="Path_223" data-name="Path 223" d="M14.921,23.219a.209.209,0,0,1,.135.058c.155.135.29.27.444.425-.174.213-.328.444-.5.676l-.174-.174c-.213-.213-.425-.444-.638-.657-.039-.039-.116-.077-.058-.174.039-.077.077-.116.155-.116.213,0,.425-.019.638-.039h0m0-.85H14.9c-.116,0-.213.019-.328.019s-.213.019-.309.019a.983.983,0,0,0-.908.58.951.951,0,0,0,.213,1.159h0l.213.213c.135.155.29.29.425.444.039.039.058.077.1.1l.058.058.7.753.618-.811.232-.29.29-.367.464-.618-.56-.541-.116-.116c-.116-.116-.232-.213-.348-.328a1.06,1.06,0,0,0-.715-.27Z" transform="translate(-13.247 -22.368)" fill="#fbb92c"/>
            </g>
          </g>
          <path id="Path_224" data-name="Path 224" d="M25.174,9.578c-.251,0-.483-.019-.734,0-.773.039-1.565.1-2.338.155a.159.159,0,0,0-.116.077c-.019.019.019.1.058.116.715.6,1.41,1.2,2.125,1.777a.15.15,0,0,0,.155.039.163.163,0,0,0,.077-.135.776.776,0,0,1,1.526,0c.019.155.116.193.232.1.715-.6,1.43-1.2,2.125-1.8a.119.119,0,0,0,.039-.135.159.159,0,0,0-.116-.077A26.369,26.369,0,0,0,25.174,9.578Z" transform="translate(-9.035 -6.738)" fill="#fcba2e"/>
          <path id="Path_225" data-name="Path 225" d="M38.9,32A12.241,12.241,0,1,0,26.48,44.233,12.245,12.245,0,0,0,38.9,32Z" transform="translate(-10.244 -5.109)" fill="#fff"/>
          <g id="R5H6JU_1_" transform="translate(0.837 1.14)">
            <g id="Group_917" data-name="Group 917">
              <g id="Group_916" data-name="Group 916">
                <path id="Path_226" data-name="Path 226" d="M37.052,23.814l-.232.638a.16.16,0,0,0,.039.155,14.258,14.258,0,0,1,1.951,2.84,13.443,13.443,0,0,1,1.449,6.569,13.418,13.418,0,0,1-8.54,12.017,13.618,13.618,0,0,1-3.729.869,13.394,13.394,0,0,1-6.878-1.217,12.758,12.758,0,0,1-3.594-2.492,13.371,13.371,0,0,1-3.652-6.2,12.435,12.435,0,0,1-.425-2.782A13.277,13.277,0,0,1,17.094,24.3c.039-.058.1-.1.135-.155l-.464-1.217c.116-.155.232-.29.348-.444.251.348.483.715.734,1.063h-.019a14.484,14.484,0,0,1,2.512-1.8.257.257,0,0,0,.058-.1c-.116-.425-.232-.85-.367-1.294a1.773,1.773,0,0,1-1.121.174.175.175,0,0,0-.193.058c-.541.6-1.1,1.179-1.662,1.777-.039-.039-.1-.1-.1-.116.077-.174-.058-.29-.135-.425a.232.232,0,0,1,0-.27q1.855-2.985,3.536-6.086c.155-.309.309-.6.464-.927a8.832,8.832,0,0,1,.773,1.681,2.934,2.934,0,0,1,0,1.99,5.722,5.722,0,0,1-.29.6h.019a.019.019,0,0,0,.019-.019,2.259,2.259,0,0,0,.715-2.183,9.987,9.987,0,0,0-.908-2.647.334.334,0,0,1-.019-.193l.29-.811a8.071,8.071,0,0,0,.425-2.241c.058-.039.116-.1.193-.155.155.155.309.328.464.483l1.333,1.333a12.519,12.519,0,0,1,1.488,1.855c.367.541.715,1.082,1.063,1.623l.7-.869a17.585,17.585,0,0,1,2.8-2.821c.464-.386.908-.753,1.352-1.14a.336.336,0,0,1-.1.29L29.015,13.67a11.036,11.036,0,0,0-1.256,1.584,1.53,1.53,0,0,0-.29.811,2.641,2.641,0,0,1-.039.367,5.312,5.312,0,0,0,.135,1.913c.155.483.328.966.5,1.449.019,0,.019,0,.039-.019V19.64c-.058-.27-.116-.541-.155-.811a5.29,5.29,0,0,1-.116-1.082c.019-.541.135-1.063.193-1.6a.293.293,0,0,1,.193-.232,4.782,4.782,0,0,0,.85,3.188.145.145,0,0,0-.019-.1c-.077-.29-.155-.58-.213-.889a3.325,3.325,0,0,1-.1-1.237c.1-.56.232-1.14.328-1.7.019-.135.116-.174.251-.232v.869a4.247,4.247,0,0,0,.232,1.468,2.475,2.475,0,0,0,.464.734c-.039-.348-.1-.657-.116-.985a5.868,5.868,0,0,1-.039-1.159c.077-.657.213-1.314.309-1.99.019-.116.058-.174.174-.155a5.649,5.649,0,0,0,.734,2.995c0-.213-.019-.425-.039-.638a13.753,13.753,0,0,1,.058-2.956c.019-.135.019-.135.116-.155.1.464.155.947.27,1.41s.27.927.425,1.41a.643.643,0,0,1,.058-.116c.27-.464.56-.908.831-1.372a.205.205,0,0,0,.019-.232c-.348-.811-.676-1.642-1-2.454-.116-.27-.232-.541-.367-.792a1.835,1.835,0,0,1,.193-.328c.077-.116.155-.213.232-.309.155-.174.251-.155.348.058a.941.941,0,0,0,.019.232c.193.676.386,1.333.58,2.009.135.406.29.811.425,1.2l1.72-1.546a.431.431,0,0,0,.135.135c-.29.29-.56.56-.831.869-.251.29-.483.618-.734.927-.077.1-.058.155-.019.27C34.154,15.931,34.831,17.5,35.6,19a18.967,18.967,0,0,0,1.681,2.744c.193.251.386.522.58.792-.1.155-.174.309-.27.464-.27-.135-.522-.27-.773-.406.019-.039.039-.1.077-.116a.146.146,0,0,0,0-.193,29.532,29.532,0,0,1-1.932-3.3c-.657-1.294-1.217-2.647-1.758-4a.579.579,0,0,0-.077-.155A8.575,8.575,0,0,0,32.4,16.7a2.933,2.933,0,0,0-.077,1.082,2.243,2.243,0,0,0,.638,1.256A3.577,3.577,0,0,0,34.7,20.162a.562.562,0,0,1,.328.27c-.174-.019-.29-.058-.464-.077.638.811,1.275,1.623,1.913,2.415-.1.135-.174.27-.251.386,0-.019-.019-.019-.019-.039a8.308,8.308,0,0,0-2.048-2.512,1.88,1.88,0,0,0-.29-.213c-.232.483-.444.927-.657,1.391a13.974,13.974,0,0,1,2.975,2.2c.077-.193.135-.367.193-.541.019.019.039.019.058.039A1.212,1.212,0,0,0,37.052,23.814Zm2.009,9.737a12.241,12.241,0,1,0-12.423,12.23A12.245,12.245,0,0,0,39.062,33.551ZM25.5,19.872a7.663,7.663,0,0,0,.425-2.26,9.675,9.675,0,0,0-.676-2.84h-.155c.116.85.27,1.681.328,2.531C25.5,18.153,25.479,19,25.5,19.872Zm-1-1.584h.039c.058-.251.116-.483.174-.734a4.07,4.07,0,0,0,.077-1.6,10.154,10.154,0,0,0-.811-2.376.158.158,0,0,0-.232-.1A13.142,13.142,0,0,1,24.494,18.288ZM22.137,15.6a3.989,3.989,0,0,0,.328-3.729c-.039,0-.1.019-.174.019A9.235,9.235,0,0,1,22.137,15.6Zm.947-2.318a11.375,11.375,0,0,1,.27,3.787,2.339,2.339,0,0,0,.174-.6A7.224,7.224,0,0,0,23.7,15.2a6.355,6.355,0,0,0-.386-1.8C23.277,13.265,23.219,13.245,23.084,13.284Z" transform="translate(-11.24 -7.797)" fill="#282a67"/>
                <path id="Path_227" data-name="Path 227" d="M34.452,23.965a.855.855,0,0,1-.56-.367c-.019-.019-.039-.019-.058-.039-.058-.1-.1-.193-.155-.29.077-.135.174-.251.251-.386-.638-.811-1.256-1.6-1.913-2.415a4.635,4.635,0,0,1,.464.077.562.562,0,0,0-.328-.27,3.492,3.492,0,0,1-1.739-1.121,2.183,2.183,0,0,1-.638-1.256,2.55,2.55,0,0,1,.077-1.082,8.576,8.576,0,0,1,.734-1.874l.077.155c.541,1.352,1.1,2.7,1.758,4a31.376,31.376,0,0,0,1.932,3.3c.058.077.077.135,0,.193-.039.039-.039.077-.077.116.27.135.522.27.773.406.077-.135.174-.29.27-.464-.193-.251-.386-.522-.58-.792a18.968,18.968,0,0,1-1.681-2.744,50.3,50.3,0,0,1-2.087-4.656.272.272,0,0,1,.019-.27c.251-.309.483-.638.734-.927s.541-.58.831-.869a.431.431,0,0,0-.135-.135L30.7,13.8c-.135-.386-.309-.792-.425-1.2-.213-.657-.386-1.333-.58-2.009a.941.941,0,0,1-.019-.232c.116-.058.232-.1.348-.155.039.232.077.464.116.734.213-.193.444-.29.522-.56a.724.724,0,0,1,.135-.232,4.2,4.2,0,0,1,1.043-.985c.039-.039.1-.039.174-.039A.146.146,0,0,0,32,9.2a.422.422,0,0,1-.058.1,7.3,7.3,0,0,0-.889,2.821c-.019.155-.039.29.135.328.309-.348.6-.676.908-1a.279.279,0,0,0,.039-.135v-.444c.019-.019.039-.019.058-.039.483.232.966.425,1.43.676a6.864,6.864,0,0,1,2.2,1.874c.039.039.077.135.058.174a8.681,8.681,0,0,1-.676,1.584,6.886,6.886,0,0,0-.251-.753,4.638,4.638,0,0,0-.6-1.294c-.116-.155-.251-.27-.367-.406-.019,0-.039.019-.058.019a.416.416,0,0,0,0,.155c.058.309.155.6.213.889a3.365,3.365,0,0,1-.058,1.1c-.019-.039-.039-.1-.058-.135-.29-.56-.56-1.121-.85-1.681a.151.151,0,0,0-.213-.1c-.058.232-.135.464-.213.715a4.316,4.316,0,0,0-.232,1.72c0,.116.039.155.155.193.29.1.58.213.85.328a2.406,2.406,0,0,1,.908.6,2.089,2.089,0,0,1,.213.348l-.058.058a.877.877,0,0,1-.27-.116c-.135-.116-.213-.251-.348-.367a1.007,1.007,0,0,0-.29-.116c-.058.232-.1.425-.135.618-.058.213-.019.29.174.386.213.116.444.213.657.328a.465.465,0,0,1,.155.116c.464.541.927,1.082,1.372,1.642.232.29.444.618.676.947-.077.058-.135.1-.193.135a5.943,5.943,0,0,0-1.314,1.1c-.039.039-.058.116-.039.135l.406.753c.039-.058.077-.1.1-.135A6.8,6.8,0,0,1,36.983,20.8a3.147,3.147,0,0,1,1.681-.676c.019.116.039.251.058.367a2.627,2.627,0,0,1-1.1.638l-.638.232a.19.19,0,0,0-.155.27,3.1,3.1,0,0,1,1.41,1.159.91.91,0,0,1,.193.869c-.058.174-.135.348-.213.541.077.1.174.1.29-.019a5.667,5.667,0,0,1,.657-.464.7.7,0,0,1,.522-.1,1.36,1.36,0,0,1-.406.676c-.019-.058-.019-.155-.077-.193a.155.155,0,0,0-.155.019,4.208,4.208,0,0,1-2.222.715,3.994,3.994,0,0,1-.29.483.254.254,0,0,0-.058.232c-.077-.039-.155-.058-.232-.1.039-.058.058-.116.077-.135a2.95,2.95,0,0,1-.348-.56,3.394,3.394,0,0,1-.135-.638A2.98,2.98,0,0,0,35.457,23c-.1.058-.193.116-.309.174.019.039.039.058.039.1.135.328.019.541-.328.6-.135.019-.251.019-.386.039l-.019.058Zm3.3-1.294c-.213.077-.213.1-.155.29a.388.388,0,0,0,.077.155.4.4,0,0,1-.1.56c-.174-.135-.367-.27-.56-.406-.039.077-.116.135-.116.193a.874.874,0,0,1-.174.5.152.152,0,0,0,0,.213,1.187,1.187,0,0,0,.58.386c.039.019.1-.019.116-.058.251-.328.5-.676.753-1.024a.17.17,0,0,0,.019-.135C38.046,23.135,37.891,22.9,37.756,22.671Z" transform="translate(-8.64 -7.949)" fill="#fff"/>
                <path id="Path_228" data-name="Path 228" d="M12.808,19.53c.541-.908,1.082-1.816,1.6-2.744.29-.522.56-1.043.85-1.565a2.248,2.248,0,0,1-.464-.966,2.118,2.118,0,0,1,.348-1.758,6.482,6.482,0,0,1,1.507-1.488.165.165,0,0,1,.135,0c.039,0,.058.039.077.058a.366.366,0,0,0,.116.077c-.019-.29-.019-.541-.058-.792a7.377,7.377,0,0,0-.58-1.662c-.019-.058-.077-.116,0-.174.077-.077.116-.155.251-.116a2.55,2.55,0,0,1,.869.406,7.532,7.532,0,0,1,1.681,1.642.238.238,0,0,0,.251.1,3.832,3.832,0,0,0-.7-2.222c.039-.058.1-.116.155-.213.193.116.406.232.58.348a7.029,7.029,0,0,1,2.067,2.2c.019.039.039.058.058.1a12.515,12.515,0,0,1-.7,2.879A4.106,4.106,0,0,0,19.8,12.4a4.569,4.569,0,0,0-1.546-.522,2.825,2.825,0,0,0,.638.56,1.657,1.657,0,0,1,.386.251A5.613,5.613,0,0,1,20.4,14a.617.617,0,0,1,.058.676,34.673,34.673,0,0,1-3.806,6.627c-.116.174-.232.309-.464.29a.2.2,0,0,0-.058.019c-.406-.483-.792-.947-1.179-1.43a.019.019,0,0,1,.019-.019c.56-.831,1.121-1.681,1.7-2.512a.451.451,0,0,1,.135-.135c.328-.213.638-.425.966-.638.039-.019.1-.058.1-.077v-.444a.067.067,0,0,1-.039-.019,1.568,1.568,0,0,1-1.121.618c.077-.328.135-.638.213-.947a.725.725,0,0,1,.56-.56c.077-.019.135-.058.213-.077a5.032,5.032,0,0,1,1.43-.232c-.232-.676-.464-1.352-.715-2.029-.174.155-.309.309-.464.425a1.429,1.429,0,0,0-.5,1.063c-.019.193-.019.193-.251.213-.039-.309-.058-.638-.1-.947a2.267,2.267,0,0,1,.232-.927,1.666,1.666,0,0,0-.715.831c-.155.464-.27.927-.386,1.391-.019.077-.039.135-.116.116a.124.124,0,0,1-.1-.1,4.2,4.2,0,0,1-.135-.464c-.019,0-.019,0-.019.019-.6,1.14-1.217,2.26-1.816,3.4a6.115,6.115,0,0,0-.367.889.441.441,0,0,0,.386-.1,4.008,4.008,0,0,0,.927-1.275c.077-.135.077-.135.232-.1a18.791,18.791,0,0,1-.947,2.125,1.243,1.243,0,0,0-1.159-.116A.262.262,0,0,1,12.808,19.53Zm7.651-7.516c.155-.328.309-.638.444-.966a.17.17,0,0,0-.019-.135c-.174-.309-.328-.638-.522-.927a2.947,2.947,0,0,0-.773-.85c-.058.039-.116.058-.193.116a.84.84,0,0,1,.135.116,2.516,2.516,0,0,1,.58.908,3.337,3.337,0,0,1,.077,1.314C20.169,11.879,20.15,11.879,20.459,12.014ZM17.31,11.84a4.752,4.752,0,0,1-.56-.135.254.254,0,0,0-.232.058,2.428,2.428,0,0,0-.831,1.333,2.592,2.592,0,0,0,0,1.217.249.249,0,0,0,.155-.251,3.1,3.1,0,0,1,0-.6,1.519,1.519,0,0,1,.676-1.063A9.369,9.369,0,0,1,17.31,11.84Z" transform="translate(-11.34 -8.111)" fill="#282a67"/>
                <path id="Path_229" data-name="Path 229" d="M38.616,20.333a3.307,3.307,0,0,0-1.681.676,6.393,6.393,0,0,0-1.449,1.526.818.818,0,0,0-.1.135l-.406-.753c-.019-.039.019-.1.039-.135a7.224,7.224,0,0,1,1.314-1.1c.058-.039.116-.077.193-.135-.232-.328-.444-.638-.676-.947-.444-.56-.908-1.1-1.372-1.642a.465.465,0,0,0-.155-.116c-.213-.116-.444-.232-.657-.328-.193-.1-.232-.174-.174-.386.039-.193.077-.386.135-.618a1.3,1.3,0,0,1,.29.116c.116.116.213.251.348.367a1.142,1.142,0,0,0,.27.116l.058-.058a2.089,2.089,0,0,0-.213-.348,2.566,2.566,0,0,0-.908-.6,6.446,6.446,0,0,0-.85-.328.208.208,0,0,1-.155-.193,5.14,5.14,0,0,1,.232-1.72c.077-.232.135-.483.213-.715a.146.146,0,0,1,.213.1c.29.56.56,1.121.85,1.681.019.039.039.1.058.135a3.331,3.331,0,0,0,.058-1.1c-.058-.309-.135-.6-.213-.889a.416.416,0,0,1,0-.155c.019,0,.039-.019.058-.019.116.135.251.27.367.406a4.4,4.4,0,0,1,.6,1.294c.077.251.155.5.251.753a12.587,12.587,0,0,0,.676-1.584.2.2,0,0,0-.058-.174,6.633,6.633,0,0,0-2.2-1.874c-.464-.251-.947-.444-1.43-.676-.019.019-.039.019-.058.039v.444a.358.358,0,0,1-.039.135c-.29.328-.6.657-.908,1-.174-.039-.155-.174-.135-.328a7.646,7.646,0,0,1,.889-2.821.422.422,0,0,1,.058-.1c0-.019,0-.019.019-.077a1.231,1.231,0,0,0-.174.039,3.626,3.626,0,0,0-1.043.985.724.724,0,0,0-.135.232c-.077.27-.309.367-.522.56-.039-.27-.077-.5-.116-.734a9.774,9.774,0,0,1,2.048-1.739c.309-.174.638-.328.966-.483a.209.209,0,0,1,.29.039,9.74,9.74,0,0,0-.6.947,9.637,9.637,0,0,0-.444,1.024.067.067,0,0,1,.039.019c.174-.1.328-.213.5-.309a8.463,8.463,0,0,1,2.145-.811c.058-.019.1-.019.155-.039.135-.058.213-.019.251.116-.213.193-.444.386-.657.58a2.855,2.855,0,0,0-.753,1.43c-.039.251-.039.27.174.425a9.705,9.705,0,0,1,1.6,1.488,3.357,3.357,0,0,0,.251.29,1.3,1.3,0,0,1,.328,1.217,4.328,4.328,0,0,1-.213.657.123.123,0,0,0,0,.116c.5,1,.985,2.009,1.507,2.995.309.58.657,1.14.966,1.7C38.616,20.121,38.6,20.237,38.616,20.333Zm-1.893-2.7c.155.386.328.753.444,1.14a11.958,11.958,0,0,1,.251,1.2c.135-.039.29-.077.444-.116-.348-.773-.676-1.526-1.024-2.3A.177.177,0,0,0,36.723,17.628Z" transform="translate(-8.592 -8.103)" fill="#282a67"/>
                <path id="Path_230" data-name="Path 230" d="M12.821,19.162a.353.353,0,0,0,.309.058,1.365,1.365,0,0,1,1.159.116,18.791,18.791,0,0,0,.947-2.125c-.174-.039-.174-.039-.232.1a4.008,4.008,0,0,1-.927,1.275.509.509,0,0,1-.386.1c.135-.309.232-.618.367-.889.6-1.14,1.2-2.26,1.816-3.4l.019-.019c.039.155.1.309.135.464.019.039.058.1.1.1.1.019.1-.058.116-.116.135-.464.251-.947.386-1.391a1.578,1.578,0,0,1,.715-.831,2.193,2.193,0,0,0-.232.927c.039.328.058.638.1.947.232,0,.232,0,.251-.213a1.429,1.429,0,0,1,.5-1.063c.155-.135.309-.27.464-.425.232.676.464,1.352.715,2.029a5.032,5.032,0,0,0-1.43.232c-.077.019-.135.058-.213.077a.725.725,0,0,0-.56.56c-.077.309-.135.6-.213.947.444-.135.889-.193,1.121-.618a.067.067,0,0,1,.039.019v.444c0,.039-.058.058-.1.077-.328.213-.638.425-.966.638a.451.451,0,0,0-.135.135c-.56.831-1.121,1.681-1.7,2.512-.019.019-.019.039-.019.019.406.483.792.947,1.179,1.43a.085.085,0,0,1,.058-.019c.232.019.348-.135.464-.29a33.677,33.677,0,0,0,3.806-6.627.614.614,0,0,0-.058-.676,5.613,5.613,0,0,0-1.121-1.314,1.657,1.657,0,0,0-.386-.251,2.187,2.187,0,0,1-.638-.56,4.43,4.43,0,0,1,1.546.522,3.688,3.688,0,0,1,1.063,1.237,12.515,12.515,0,0,0,.7-2.879c.116.1.251.193.367.29a8.071,8.071,0,0,1-.425,2.241c-.077.27-.193.541-.29.811a.229.229,0,0,0,.019.193,9.344,9.344,0,0,1,.908,2.647,2.259,2.259,0,0,1-.715,2.183l-.019.019H21.4c.1-.193.213-.406.29-.6a2.934,2.934,0,0,0,0-1.99,8.735,8.735,0,0,0-.773-1.681l-.464.927q-1.652,3.1-3.536,6.086a.232.232,0,0,0,0,.27c.077.135.193.251.135.425-.019.019.058.077.1.116l.058.116c-.116.155-.232.29-.348.444-.019-.019-.058-.039-.077-.058-.039-.058-.077-.1-.116-.155-.155.116-.309.251-.483.058a12.435,12.435,0,0,1-1.043,1.391c-.1-.116-.174-.213-.251-.309.039-.039.058-.077.1-.116a4.584,4.584,0,0,0,.811-1.352.268.268,0,0,0,0-.174c-.193-.348-.193-.406.1-.676a.067.067,0,0,0,.019-.039,11.552,11.552,0,0,0-1.449-1.468,2.593,2.593,0,0,0-1.372-.6c-.116-.019-.251-.019-.367-.039A.543.543,0,0,1,12.821,19.162Z" transform="translate(-11.353 -7.743)" fill="#fff"/>
                <path id="Path_231" data-name="Path 231" d="M25.422,15.569c-.155-.193-.29-.406-.425-.6a.232.232,0,0,1-.039-.155V13.5a.283.283,0,0,0-.116-.251l-3.594-3.072a.379.379,0,0,0-.367-.1c-.1.039-.155,0-.232-.058-.174-.193-.367-.386-.58-.6.29-.058.541-.116.811-.155a24.355,24.355,0,0,1,3.941-.425,22.328,22.328,0,0,1,4.25.232c.657.1,1.314.29,1.971.425a1.331,1.331,0,0,0,.155.058c-.213.213-.406.425-.618.638-.019.019-.1.019-.135.019-.155-.039-.328-.1-.483-.135a.253.253,0,0,0-.213.039c-1.237,1.043-2.473,2.087-3.69,3.13a.248.248,0,0,0-.077.193v1.314a.367.367,0,0,1-.1.251C25.731,15.222,25.576,15.376,25.422,15.569ZM25.48,9.7c-.251,0-.483-.019-.734,0-.773.039-1.565.1-2.338.155a.159.159,0,0,0-.116.077c-.019.019.019.1.058.116.715.6,1.41,1.2,2.125,1.777a.15.15,0,0,0,.155.039.163.163,0,0,0,.077-.135.776.776,0,0,1,1.526,0c.019.155.116.193.232.1.715-.6,1.43-1.2,2.125-1.8a.119.119,0,0,0,.039-.135.159.159,0,0,0-.116-.077A26.369,26.369,0,0,0,25.48,9.7Zm-3.825-.232v.058a.409.409,0,0,0,.135.058,1.751,1.751,0,0,0,.444.019,23.629,23.629,0,0,1,2.84-.309,14.829,14.829,0,0,1,3.574.309,1.02,1.02,0,0,0,.85-.135c-.019,0-.058-.019-.077-.019a20.327,20.327,0,0,0-4.038-.425c-.657,0-1.294.039-1.951.1a12.554,12.554,0,0,0-1.488.232A1.3,1.3,0,0,0,21.654,9.464Zm3.883,2.048a.307.307,0,0,0-.541.213.273.273,0,0,0,.193.27c.077.039.135.039.174-.058C25.422,11.8,25.48,11.667,25.538,11.512Z" transform="translate(-10.178 -7.996)" fill="#282a67"/>
                <path id="Path_232" data-name="Path 232" d="M29.588,10.726c.116.27.251.522.367.792.348.811.676,1.642,1,2.454a.244.244,0,0,1-.019.232c-.29.444-.56.908-.831,1.372a.315.315,0,0,0-.058.116c-.155-.483-.309-.947-.425-1.41s-.193-.947-.27-1.41c-.1.019-.116.019-.116.155a13.753,13.753,0,0,0-.058,2.956c.019.213.039.425.039.638a5.742,5.742,0,0,1-.734-2.995c-.116,0-.155.039-.174.155-.1.657-.251,1.314-.309,1.99a7.752,7.752,0,0,0,.039,1.159c.019.328.077.638.116.985a2.747,2.747,0,0,1-.464-.734,4.176,4.176,0,0,1-.232-1.468c-.019-.29,0-.56,0-.869-.135.058-.232.1-.251.232-.116.56-.232,1.14-.328,1.7a3.325,3.325,0,0,0,.1,1.237c.058.29.135.6.213.889a.174.174,0,0,0,.019.1,4.782,4.782,0,0,1-.85-3.188c-.135.058-.193.116-.193.232-.058.541-.174,1.063-.193,1.6a5.017,5.017,0,0,0,.116,1.082c.039.27.1.541.155.811v.135c-.019,0-.019,0-.039.019-.174-.483-.348-.966-.5-1.449a5.312,5.312,0,0,1-.135-1.913c0-.116.039-.232.039-.367a1.53,1.53,0,0,1,.29-.811,12.568,12.568,0,0,1,1.256-1.584l2.125-2.357a.319.319,0,0,0,.1-.29A1.747,1.747,0,0,0,29.588,10.726Z" transform="translate(-9.302 -7.693)" fill="#fff"/>
                <path id="Path_233" data-name="Path 233" d="M12.895,18.1c.116.019.251.019.367.039a2.593,2.593,0,0,1,1.372.6,10.41,10.41,0,0,1,1.449,1.468.06.06,0,0,0-.019.039c-.29.29-.29.328-.1.676a.266.266,0,0,1,0,.174,4.584,4.584,0,0,1-.811,1.352c-.019.039-.058.058-.1.116.077.1.155.193.251.309a10.451,10.451,0,0,0,1.043-1.391c.174.193.328.077.483-.058a1.072,1.072,0,0,0,.116.155c-.174.328-.328.638-.5.966-.116.213-.193.444-.309.676a.47.47,0,0,1-.638.27c-.1-.039-.174-.039-.232.058a.287.287,0,0,1-.251.116l-1.526.058a.455.455,0,0,0-.155.039.233.233,0,0,1-.251-.193.991.991,0,0,0-.406-.753c-.309-.232-.638-.464-.947-.676l.116-.174a.487.487,0,0,1,.734-.155,6.864,6.864,0,0,1,.6.444.405.405,0,0,0,.213.077c.213.039.425.039.638.1.174.039.155.058.251-.039a5.936,5.936,0,0,1-.7-.522.725.725,0,0,1-.135-.966A2.868,2.868,0,0,1,14,20.365c.058-.058.174-.058.232-.077a1.728,1.728,0,0,0-.251.444.9.9,0,0,0,.425,1.043c.155.116.155.116.309-.039a.339.339,0,0,1-.1-.077.62.62,0,0,1-.116-.792,2.276,2.276,0,0,1,.213-.367c.174-.251.348-.483.5-.715a2.3,2.3,0,0,0-1.855-.773,1.206,1.206,0,0,0-1.1.638c-.077.174-.193.328-.251.5-.1.27-.155.541-.232.831a1.157,1.157,0,0,0-.232.039c.155-.7.29-1.391.464-2.067a1.2,1.2,0,0,1,.676-.792A.578.578,0,0,0,12.895,18.1Z" transform="translate(-11.542 -6.512)" fill="#282a67"/>
                <path id="Path_234" data-name="Path 234" d="M11.614,20.9c.077-.019.174-.019.232-.039.077-.29.135-.56.232-.831.058-.174.174-.328.251-.5a1.206,1.206,0,0,1,1.1-.638,2.3,2.3,0,0,1,1.855.773c-.174.232-.348.483-.5.715a3.589,3.589,0,0,0-.213.367.62.62,0,0,0,.116.792.421.421,0,0,0,.1.077c-.155.155-.155.155-.309.039a.944.944,0,0,1-.425-1.043c.058-.155.174-.29.251-.444-.058.019-.174.019-.232.077a3.58,3.58,0,0,0-.541.541.705.705,0,0,0,.135.966c.213.193.464.348.7.522-.1.1-.1.077-.251.039-.213-.058-.425-.058-.638-.1a.692.692,0,0,1-.213-.077c-.213-.135-.386-.309-.6-.444a.473.473,0,0,0-.734.155l-.116.174A1.514,1.514,0,0,1,11.614,20.9Z" transform="translate(-11.537 -6.388)" fill="#fff"/>
                <path id="Path_235" data-name="Path 235" d="M38.7,22.117a.7.7,0,0,0-.522.1,5.054,5.054,0,0,0-.657.464c-.135.116-.213.116-.29.019.077-.193.155-.367.213-.541a.9.9,0,0,0-.193-.869,3.208,3.208,0,0,0-1.41-1.159.19.19,0,0,1,.155-.27c.213-.058.425-.155.638-.232a2.751,2.751,0,0,0,1.1-.638c.309.715.638,1.43.947,2.164a2.343,2.343,0,0,1,.135.638A3.422,3.422,0,0,1,38.7,22.117Z" transform="translate(-7.656 -6.371)" fill="#282a67"/>
                <path id="Path_236" data-name="Path 236" d="M33.811,22.061c.135-.019.251-.019.386-.039.348-.058.464-.27.328-.6-.019-.039-.019-.058-.039-.1.1-.058.193-.116.309-.174a2.869,2.869,0,0,1,.386,1.121,3.753,3.753,0,0,0,.135.638,3.708,3.708,0,0,0,.348.56c-.019.019-.039.077-.077.135a.77.77,0,0,1-.869-.328,6.344,6.344,0,0,1-.386-.6,2.57,2.57,0,0,0-.27-.367A1.033,1.033,0,0,0,33.811,22.061Z" transform="translate(-7.979 -6.025)" fill="#282a67"/>
                <path id="Path_237" data-name="Path 237" d="M35.544,23.535A.22.22,0,0,1,35.6,23.3a2.906,2.906,0,0,0,.29-.483,4.155,4.155,0,0,0,2.222-.715c.039-.019.135-.039.155-.019a.579.579,0,0,1,.077.193c-.1.058-.174.116-.27.174a1.386,1.386,0,0,0-.6.869c-.019.1-.077.155-.155.155a2.668,2.668,0,0,1-.676.019A5.255,5.255,0,0,0,35.544,23.535Z" transform="translate(-7.704 -5.877)" fill="#282a67"/>
                <path id="Path_238" data-name="Path 238" d="M36,23.507a.591.591,0,0,0,.444-.019c.193-.077.348.058.464.155-.386.6-.773,1.179-1.14,1.758-.077-.193-.155-.425-.251-.638a.5.5,0,0,1,.058-.56C35.73,23.99,35.846,23.739,36,23.507Z" transform="translate(-7.716 -5.655)" fill="#fff"/>
                <path id="Path_239" data-name="Path 239" d="M15.382,23.584c-.174.213-.328.444-.5.676l-.174-.174c-.213-.213-.425-.444-.638-.657-.039-.039-.116-.077-.058-.174.039-.077.077-.116.155-.116.213,0,.425-.019.638-.039a.209.209,0,0,1,.135.058C15.092,23.294,15.227,23.43,15.382,23.584Z" transform="translate(-11.151 -5.713)" fill="#fff"/>
                <path id="Path_240" data-name="Path 240" d="M23.887,19.225c-.019-.869,0-1.72-.058-2.57s-.213-1.681-.328-2.531h.155a9.532,9.532,0,0,1,.676,2.84A8.374,8.374,0,0,1,23.887,19.225Z" transform="translate(-9.629 -7.149)" fill="#fff"/>
                <path id="Path_241" data-name="Path 241" d="M23.072,17.821a12.808,12.808,0,0,0-.753-4.811c.135-.039.193-.019.232.1a10.466,10.466,0,0,1,.811,2.376,4.467,4.467,0,0,1-.077,1.6c-.058.251-.116.483-.174.734Z" transform="translate(-9.818 -7.33)" fill="#fff"/>
                <path id="Path_242" data-name="Path 242" d="M20.936,15.352a9.14,9.14,0,0,0,.155-3.69.666.666,0,0,1,.174-.019A3.965,3.965,0,0,1,20.936,15.352Z" transform="translate(-10.039 -7.546)" fill="#fff"/>
                <path id="Path_243" data-name="Path 243" d="M21.752,12.844c.116-.039.193-.019.232.1a5.752,5.752,0,0,1,.386,1.8,7.224,7.224,0,0,1-.174,1.275,3.059,3.059,0,0,1-.174.6A11.261,11.261,0,0,0,21.752,12.844Z" transform="translate(-9.909 -7.357)" fill="#fff"/>
                <path id="Path_244" data-name="Path 244" d="M36.789,20.8c.155.232.29.464.444.7a.119.119,0,0,1-.019.135c-.251.348-.5.676-.753,1.024-.019.039-.1.058-.116.058a1.187,1.187,0,0,1-.58-.386.152.152,0,0,1,0-.213.794.794,0,0,0,.174-.5c0-.058.077-.116.116-.193.193.135.386.27.56.406a.4.4,0,0,0,.1-.56c-.019-.058-.058-.1-.077-.155C36.558,20.9,36.577,20.861,36.789,20.8Z" transform="translate(-7.674 -6.081)" fill="#282a67"/>
                <path id="Path_245" data-name="Path 245" d="M19.548,11.875c-.29-.135-.27-.135-.251-.444a2.747,2.747,0,0,0-.077-1.314,3.168,3.168,0,0,0-.58-.908c-.039-.039-.077-.058-.135-.116.077-.058.135-.077.193-.116a2.947,2.947,0,0,1,.773.85c.193.309.348.618.522.927a.17.17,0,0,1,.019.135C19.837,11.238,19.7,11.547,19.548,11.875Z" transform="translate(-10.428 -7.973)" fill="#fff"/>
                <path id="Path_246" data-name="Path 246" d="M16.925,11.345c-.27.193-.56.367-.811.56a1.584,1.584,0,0,0-.676,1.063,3.1,3.1,0,0,0,0,.6.226.226,0,0,1-.155.251,2.592,2.592,0,0,1,0-1.217,2.428,2.428,0,0,1,.831-1.333.254.254,0,0,1,.232-.058C16.539,11.268,16.732,11.307,16.925,11.345Z" transform="translate(-10.955 -7.617)" fill="#fff"/>
                <path id="Path_247" data-name="Path 247" d="M35.793,16.336c.019-.019.077-.058.116-.1.348.773.676,1.526,1.024,2.3-.155.039-.309.077-.444.116a11.958,11.958,0,0,0-.251-1.2C36.121,17.07,35.947,16.722,35.793,16.336Z" transform="translate(-7.662 -6.811)" fill="#fff"/>
                <path id="Path_248" data-name="Path 248" d="M21.438,9.439a1.628,1.628,0,0,1,.27-.116c.5-.077,1-.174,1.488-.232.638-.058,1.294-.1,1.951-.1a18.988,18.988,0,0,1,4.038.425c.019,0,.058.019.077.019a1.1,1.1,0,0,1-.85.135,14.829,14.829,0,0,0-3.574-.309A20.26,20.26,0,0,0,22,9.574a1.751,1.751,0,0,1-.444-.019.409.409,0,0,1-.135-.058A.071.071,0,0,0,21.438,9.439Z" transform="translate(-9.962 -7.97)" fill="#fff"/>
                <path id="Path_249" data-name="Path 249" d="M24.858,11.158c-.058.135-.116.27-.174.425-.039.1-.1.1-.174.058a.291.291,0,0,1-.193-.27.319.319,0,0,1,.174-.29A.3.3,0,0,1,24.858,11.158Z" transform="translate(-9.498 -7.641)" fill="#fff"/>
                <path id="Path_250" data-name="Path 250" d="M18.069,26.815c.522.309,1.024.6,1.546.889,1.063.618,2.145,1.237,3.207,1.855.058.039.1.058.077.155a3.414,3.414,0,0,0,0,2.318v.039c-1.623.927-3.227,1.874-4.849,2.8a8.917,8.917,0,0,1-.927-3.71A9.158,9.158,0,0,1,18.069,26.815Z" transform="translate(-10.65 -5.119)" fill="#282a67"/>
                <path id="Path_251" data-name="Path 251" d="M18.5,35.166c1.642-.947,3.265-1.874,4.888-2.821a3.508,3.508,0,0,0,2.087,1.14v5.622A9.194,9.194,0,0,1,18.5,35.166Z" transform="translate(-10.428 -4.234)" fill="#282a67"/>
                <path id="Path_252" data-name="Path 252" d="M18.521,26.335a9.155,9.155,0,0,1,6.936-3.883v5.622a3.575,3.575,0,0,0-2.048,1.1C21.786,28.228,20.163,27.282,18.521,26.335Z" transform="translate(-10.426 -5.817)" fill="#282a67"/>
                <path id="Path_253" data-name="Path 253" d="M27.865,29.717c1.623-.927,3.246-1.874,4.869-2.8a8.834,8.834,0,0,1,.831,2.859,9.217,9.217,0,0,1-.831,5.023c-1.623-.947-3.246-1.874-4.869-2.821A3.485,3.485,0,0,0,27.865,29.717Z" transform="translate(-8.931 -5.103)" fill="#282a67"/>
                <path id="Path_254" data-name="Path 254" d="M32.445,35.1a9.153,9.153,0,0,1-6.762,3.98V33.57c0-.116.039-.155.135-.174a3.611,3.611,0,0,0,1.662-1l.077-.077A.06.06,0,0,0,27.6,32.3C29.18,33.222,30.8,34.15,32.445,35.1Z" transform="translate(-9.28 -4.242)" fill="#282a67"/>
                <path id="Path_255" data-name="Path 255" d="M25.683,22.468a9.222,9.222,0,0,1,6.762,3.98c-1.642.947-3.246,1.874-4.869,2.821a3.521,3.521,0,0,0-1.874-1.14C25.683,26.236,25.683,24.362,25.683,22.468Z" transform="translate(-9.28 -5.814)" fill="#282a67"/>
                <path id="Path_256" data-name="Path 256" d="M25.2,28.931a1.571,1.571,0,0,1,1.584,1.6,1.6,1.6,0,0,1-1.6,1.6,1.6,1.6,0,0,1,.019-3.207Z" transform="translate(-9.613 -4.78)" fill="#282a67"/>
                <path id="Path_257" data-name="Path 257" d="M23.7,28.762a.346.346,0,0,1-.348.348A.359.359,0,0,1,23,28.762a.348.348,0,0,1,.7,0Z" transform="translate(-9.709 -4.863)" fill="#282a67"/>
                <path id="Path_258" data-name="Path 258" d="M25,28.377a.348.348,0,1,1,.348-.348A.335.335,0,0,1,25,28.377Z" transform="translate(-9.445 -4.98)" fill="#282a67"/>
                <path id="Path_259" data-name="Path 259" d="M22.716,30.063a.348.348,0,1,1,0,.7.359.359,0,0,1-.348-.348A.346.346,0,0,1,22.716,30.063Z" transform="translate(-9.81 -4.599)" fill="#282a67"/>
                <path id="Path_260" data-name="Path 260" d="M26.992,28.7a.346.346,0,0,1-.348.348.33.33,0,0,1-.328-.348.346.346,0,0,1,.348-.348A.342.342,0,0,1,26.992,28.7Z" transform="translate(-9.179 -4.873)" fill="#282a67"/>
                <path id="Path_261" data-name="Path 261" d="M25,33.007a.33.33,0,0,1-.328-.348.346.346,0,0,1,.348-.348.33.33,0,0,1,.328.348A.335.335,0,0,1,25,33.007Z" transform="translate(-9.442 -4.239)" fill="#282a67"/>
                <path id="Path_262" data-name="Path 262" d="M26.925,32.027a.346.346,0,0,1-.348.348.348.348,0,0,1,0-.7A.346.346,0,0,1,26.925,32.027Z" transform="translate(-9.189 -4.34)" fill="#282a67"/>
                <path id="Path_263" data-name="Path 263" d="M23.678,31.927a.346.346,0,0,1-.348.348.348.348,0,0,1,0-.7A.346.346,0,0,1,23.678,31.927Z" transform="translate(-9.709 -4.356)" fill="#282a67"/>
                <path id="Path_264" data-name="Path 264" d="M27,30.478a.348.348,0,0,1,.7,0,.348.348,0,1,1-.7,0Z" transform="translate(-9.069 -4.588)" fill="#282a67"/>
              </g>
            </g>
          </g>
          <g id="Group_918" data-name="Group 918" transform="translate(5.165 15.34)">
            <path id="Path_265" data-name="Path 265" d="M17.44,34.215a.3.3,0,0,0-.077-.116.117.117,0,0,0-.155,0l-1.024.464a.122.122,0,0,0-.1.116.491.491,0,0,0,.039.135l-.058.019-.328-.753.058-.019c.039.058.058.116.077.135a.117.117,0,0,0,.155,0l1.024-.464c.058-.019.1-.058.1-.1a.26.26,0,0,0-.039-.155l.058-.019.328.753Z" transform="translate(-15.199 -18.256)" fill="#282a67"/>
            <path id="Path_266" data-name="Path 266" d="M17.047,33.526a.267.267,0,0,0-.058-.077q-.029-.029-.116,0l-.657.213c-.039.019-.077.039-.077.058a.086.086,0,0,0,0,.1l-.058.019-.135-.425.155-.058a.783.783,0,0,1-.174-.1.281.281,0,0,1-.116-.174.286.286,0,0,1,0-.251.355.355,0,0,1,.232-.155l.541-.174a.207.207,0,0,0,.1-.058c0-.019.019-.058,0-.1l.058-.019.174.522-.058.019a.267.267,0,0,0-.058-.077c-.019-.019-.058,0-.1,0l-.541.174a.644.644,0,0,0-.116.058c-.039.039-.058.077-.039.116a.193.193,0,0,0,.077.1.275.275,0,0,0,.116.039l.6-.193c.058-.019.077-.039.077-.058s.019-.058,0-.1l.058-.019.174.541Z" transform="translate(-15.192 -18.437)" fill="#282a67"/>
            <path id="Path_267" data-name="Path 267" d="M15.853,32.529l-.058.019c-.019-.019-.058-.039-.077-.058-.039-.039-.1-.058-.135-.1a1.949,1.949,0,0,0-.29-.135l-.019-.058.386-.077-.039-.213.1-.019.039.213.7-.135a.1.1,0,0,0,.077-.039.077.077,0,0,0,.039-.077.1.1,0,0,0-.039-.077.148.148,0,0,0-.1-.039l.019-.058a1.823,1.823,0,0,1,.174.058.344.344,0,0,1,.155.213.213.213,0,0,1,0,.155.211.211,0,0,1-.193.155l-.734.155Z" transform="translate(-15.273 -18.541)" fill="#282a67"/>
            <path id="Path_268" data-name="Path 268" d="M15.65,31.613a.451.451,0,0,1-.193-.328.382.382,0,0,1,.039-.213.341.341,0,0,1,.155-.174.579.579,0,0,1,.193-.077.837.837,0,0,0,.1-.019l.058.6a.652.652,0,0,0,.232-.077.286.286,0,0,0,.174-.251.257.257,0,0,0-.058-.155.736.736,0,0,0-.116-.1l.019-.058a.642.642,0,0,1,.27.232.389.389,0,0,1,.058.213.416.416,0,0,1-.1.328.512.512,0,0,1-.406.193A.587.587,0,0,1,15.65,31.613Zm.232-.522a1.853,1.853,0,0,0-.29.058.129.129,0,0,0-.077.135q0,.087.116.116a.622.622,0,0,0,.27,0Z" transform="translate(-15.244 -18.688)" fill="#282a67"/>
            <path id="Path_269" data-name="Path 269" d="M16.455,30.763a.148.148,0,0,0-.039-.1c-.019-.019-.039-.019-.1-.019H15.6c-.058,0-.077,0-.1.019a.148.148,0,0,0-.039.1h-.058v-.444h.174a1.166,1.166,0,0,1-.155-.155.27.27,0,0,1-.058-.174.358.358,0,0,1,.039-.135.175.175,0,0,1,.135-.058.275.275,0,0,1,.116.039c.039.019.039.058.039.1a.146.146,0,0,1-.077.135c-.039.039-.077.058-.077.077,0,.039.019.058.058.1s.1.039.174.039h.444a.145.145,0,0,0,.174-.174h.058v.657Z" transform="translate(-15.257 -18.842)" fill="#282a67"/>
            <path id="Path_270" data-name="Path 270" d="M16.444,29.854a.145.145,0,0,0-.019-.1.148.148,0,0,0-.1-.039l-.676-.077a.145.145,0,0,0-.1.019.207.207,0,0,0-.058.1H15.44l.058-.444.174.019a.3.3,0,0,1-.116-.155.348.348,0,0,1-.039-.193.314.314,0,0,1,.1-.213.385.385,0,0,1,.27-.039l.56.077c.058,0,.077,0,.1-.019a.1.1,0,0,0,.039-.077h.058l-.077.541H16.5a.837.837,0,0,0-.019-.1c-.019-.019-.039-.019-.1-.039l-.56-.077H15.71c-.058.019-.077.039-.077.1a.142.142,0,0,0,.039.116c.019.039.058.058.077.1l.618.077c.058,0,.077,0,.1-.019a.1.1,0,0,0,.039-.077h.058l-.077.56Z" transform="translate(-15.246 -19.015)" fill="#282a67"/>
            <path id="Path_271" data-name="Path 271" d="M16.231,28.448a1.7,1.7,0,0,1-.058-.5l-.155-.039a.212.212,0,0,0-.155,0,.191.191,0,0,0-.1.135.086.086,0,0,0,0,.1c0,.039.019.039.039.058h.058a.067.067,0,0,0,.039-.019h.058a.193.193,0,0,1,.1.077.123.123,0,0,1,0,.116.422.422,0,0,1-.058.1.128.128,0,0,1-.116.019.26.26,0,0,1-.174-.174.627.627,0,0,1,0-.328.666.666,0,0,1,.155-.309.286.286,0,0,1,.309-.058l.541.135h.039a.019.019,0,0,0,.019-.019v-.019a.06.06,0,0,0-.019-.039l.058-.019a.686.686,0,0,1,.077.174v.116a.246.246,0,0,1-.1.135c-.019.019-.058.019-.116.019a.548.548,0,0,1,.077.251.425.425,0,0,1-.019.155.421.421,0,0,1-.1.155.253.253,0,0,1-.213.039A.5.5,0,0,1,16.231,28.448Zm.386-.328c0-.019-.019-.039-.039-.077l-.328-.077a.535.535,0,0,0,.019.174.26.26,0,0,0,.174.174q.087.029.116,0,.058-.029.058-.058A.163.163,0,0,0,16.617,28.12Z" transform="translate(-15.207 -19.194)" fill="#282a67"/>
            <path id="Path_272" data-name="Path 272" d="M16.054,27.375,16,27.356c-.019-.019-.019-.058-.039-.1a.578.578,0,0,0-.077-.155,1.064,1.064,0,0,0-.174-.27l.019-.058.367.135.077-.213.1.039-.077.213.657.251a.146.146,0,0,0,.077.019c.039,0,.058-.019.077-.058.019-.019,0-.058,0-.077a.422.422,0,0,1-.058-.1l.039-.039a.3.3,0,0,1,.116.155.435.435,0,0,1,.019.27.177.177,0,0,1-.077.116.231.231,0,0,1-.251.039l-.715-.27Z" transform="translate(-15.204 -19.338)" fill="#282a67"/>
            <path id="Path_273" data-name="Path 273" d="M15.875,26.25a.165.165,0,0,1,0-.135.233.233,0,0,1,.1-.1.165.165,0,0,1,.135,0,.233.233,0,0,1,.1.1.165.165,0,0,1,0,.135.233.233,0,0,1-.1.1.165.165,0,0,1-.135,0A.159.159,0,0,1,15.875,26.25Zm1.294.773a.086.086,0,0,0,0-.1c0-.039-.039-.058-.077-.077l-.618-.29a.21.21,0,0,0-.1-.019c-.019,0-.039.039-.077.077l-.058-.019.193-.406.792.367a.21.21,0,0,0,.1.019q.029,0,.058-.058l.058.019-.232.5Z" transform="translate(-15.179 -19.449)" fill="#282a67"/>
            <path id="Path_274" data-name="Path 274" d="M16.658,25.922a.509.509,0,0,1,.058-.406.444.444,0,0,1,.328-.232.65.65,0,0,1,.425.077.562.562,0,0,1,.27.328.513.513,0,0,1-.386.638.623.623,0,0,1-.7-.406Zm.753.193a.2.2,0,0,0,.213-.058.149.149,0,0,0-.019-.193,1.776,1.776,0,0,0-.309-.232,1.189,1.189,0,0,0-.348-.155.147.147,0,0,0-.174.058c-.039.077-.019.135.058.213a1.044,1.044,0,0,0,.29.193A1.362,1.362,0,0,0,17.412,26.115Z" transform="translate(-15.055 -19.565)" fill="#282a67"/>
            <path id="Path_275" data-name="Path 275" d="M17.881,25.645a.326.326,0,0,0,.039-.1.177.177,0,0,0-.058-.1l-.541-.425a.125.125,0,0,0-.1-.039.177.177,0,0,0-.1.058l-.039-.039.27-.348.135.1a.657.657,0,0,1-.019-.193.343.343,0,0,1,.077-.193.367.367,0,0,1,.213-.135c.077-.019.155.019.27.1l.444.348a.125.125,0,0,0,.1.039.1.1,0,0,0,.077-.058l.039.039-.328.425-.039-.039a.174.174,0,0,0,.019-.1c0-.019-.019-.039-.058-.077l-.444-.348a.177.177,0,0,0-.1-.058.086.086,0,0,0-.116.039.275.275,0,0,0-.039.116.245.245,0,0,0,.019.116l.483.386a.125.125,0,0,0,.1.039c.019,0,.039-.019.077-.039l.039.039-.348.444Z" transform="translate(-14.983 -19.733)" fill="#282a67"/>
            <path id="Path_276" data-name="Path 276" d="M18.409,24.3a1.529,1.529,0,0,1,.213-.464l-.116-.116c-.058-.058-.1-.077-.135-.077a.231.231,0,0,0-.155.077c-.039.039-.058.058-.058.1s0,.058.019.077l.019.019h.039c.019,0,.039,0,.039.019a.067.067,0,0,1,.039.019.106.106,0,0,1,.039.1.148.148,0,0,1-.039.1.167.167,0,0,1-.116.058.275.275,0,0,1-.116-.039.241.241,0,0,1-.058-.232.469.469,0,0,1,.174-.27.583.583,0,0,1,.29-.174.319.319,0,0,1,.29.116l.406.406c.019.019.019.019.039.019h.039l.019-.019v-.039l.058.019a.318.318,0,0,1-.039.193c-.019.039-.039.058-.058.1-.058.058-.1.077-.155.058a.326.326,0,0,1-.1-.039.535.535,0,0,1-.058.251c-.019.039-.058.077-.077.116a.245.245,0,0,1-.174.077.2.2,0,0,1-.193-.077A.4.4,0,0,1,18.409,24.3Zm.483-.058v-.1l-.232-.251a.312.312,0,0,0-.058.174.241.241,0,0,0,.058.232.177.177,0,0,0,.1.058c.039,0,.058,0,.077-.019C18.872,24.3,18.892,24.277,18.892,24.238Z" transform="translate(-14.834 -19.853)" fill="#282a67"/>
            <path id="Path_277" data-name="Path 277" d="M19.387,24.017c.019-.039.039-.058.039-.077a.326.326,0,0,0-.039-.1l-.753-.927c-.039-.039-.058-.058-.077-.058a.21.21,0,0,0-.1.019l-.039-.039.348-.27.869,1.063c.039.039.058.058.077.058a.21.21,0,0,0,.1-.019l.039.039-.425.348Z" transform="translate(-14.769 -19.999)" fill="#282a67"/>
            <path id="Path_278" data-name="Path 278" d="M20.257,23.356c.058-.039.1-.058.1-.1a.212.212,0,0,0,0-.155l-.56-.985c-.039-.058-.077-.1-.116-.1a.491.491,0,0,0-.135.039L19.5,22l.618-.348a.912.912,0,0,1,.328-.135.329.329,0,0,1,.386.155.289.289,0,0,1,.019.251.548.548,0,0,1-.155.213l.019.019a.97.97,0,0,1,.232-.039.374.374,0,0,1,.328.193.409.409,0,0,1,0,.367.723.723,0,0,1-.348.328l-.657.367Zm.328-1.179a.337.337,0,0,0-.058-.251.456.456,0,0,0-.155-.174.177.177,0,0,0-.213.019c-.039.019-.077.039-.077.077a.21.21,0,0,0,.019.1l.251.464A.626.626,0,0,0,20.586,22.177Zm.155.831a.091.091,0,0,0,.116-.019c.1-.058.155-.116.155-.193a.468.468,0,0,0-.077-.251.348.348,0,0,0-.29-.213.655.655,0,0,0-.27.1l.29.5C20.7,22.989,20.721,23.008,20.74,23.008Z" transform="translate(-14.596 -20.168)" fill="#282a67"/>
            <path id="Path_279" data-name="Path 279" d="M21.417,22.624a.267.267,0,0,0,.077-.058c.019-.019,0-.058,0-.1l-.019-.058-.232-.58c-.019-.039-.039-.077-.058-.077-.019-.019-.058,0-.1,0l-.019-.058.406-.174.077.174a.579.579,0,0,1,.077-.193.26.26,0,0,1,.135-.116.165.165,0,0,1,.135,0,.233.233,0,0,1,.1.1.123.123,0,0,1,0,.116.151.151,0,0,1-.077.077.155.155,0,0,1-.155-.019c-.058-.039-.077-.039-.1-.039a.12.12,0,0,0-.058.1c-.019.039,0,.1.019.174l.174.406c.039.077.058.116.077.116a.435.435,0,0,0,.135-.019l.019.058-.58.232Z" transform="translate(-14.346 -20.19)" fill="#282a67"/>
            <path id="Path_280" data-name="Path 280" d="M22.128,21.373a.451.451,0,0,1,.309-.251.488.488,0,0,1,.406.058.588.588,0,0,1,.251.348.54.54,0,0,1-.039.425.469.469,0,0,1-.328.27.488.488,0,0,1-.406-.058.588.588,0,0,1-.251-.348A.7.7,0,0,1,22.128,21.373Zm.406.676c.058.1.116.116.193.1a.147.147,0,0,0,.116-.155,1.123,1.123,0,0,0-.077-.367,1.061,1.061,0,0,0-.135-.348.136.136,0,0,0-.174-.077c-.077.019-.116.077-.116.193a.95.95,0,0,0,.077.328A2.778,2.778,0,0,0,22.534,22.049Z" transform="translate(-14.187 -20.233)" fill="#282a67"/>
            <path id="Path_281" data-name="Path 281" d="M23.054,21.147l-.019-.058c.019-.019.039-.058.058-.077.039-.039.058-.1.1-.135a1.767,1.767,0,0,0,.135-.27l.058-.019.077.386.213-.039.019.1-.213.039.116.7a.1.1,0,0,0,.039.077.077.077,0,0,0,.077.039.1.1,0,0,0,.077-.039.148.148,0,0,0,.039-.1l.058.019a.686.686,0,0,1-.077.174.405.405,0,0,1-.213.155.416.416,0,0,1-.155,0,.235.235,0,0,1-.155-.193l-.135-.734Z" transform="translate(-14.031 -20.316)" fill="#282a67"/>
            <path id="Path_282" data-name="Path 282" d="M23.914,21.918a.148.148,0,0,0,.1-.039c.019-.019.019-.058.019-.116l-.077-1.179a.148.148,0,0,0-.039-.1c-.019-.019-.058-.019-.1-.039v-.058l.444-.039.039.657a.446.446,0,0,1,.135-.135.312.312,0,0,1,.174-.058.412.412,0,0,1,.232.058.3.3,0,0,1,.1.251l.039.56a.114.114,0,0,0,.039.1c.019.019.058.019.1.039v.058l-.541.039V21.86c.039-.019.077-.019.077-.039a.145.145,0,0,0,.019-.1l-.039-.56a.683.683,0,0,0-.019-.116.094.094,0,0,0-.116-.058.167.167,0,0,0-.116.058c-.039.039-.058.058-.058.077l.039.618a.114.114,0,0,0,.039.1c.019.019.039.019.1.019v.058l-.56.039Z" transform="translate(-13.906 -20.353)" fill="#282a67"/>
            <path id="Path_283" data-name="Path 283" d="M25.24,20.888a.466.466,0,0,1,.348-.135.291.291,0,0,1,.213.077.456.456,0,0,1,.155.174.7.7,0,0,1,.039.213v.1l-.6-.039a.979.979,0,0,0,.039.251.265.265,0,0,0,.232.213.364.364,0,0,0,.155-.039.512.512,0,0,0,.116-.1l.058.039a.6.6,0,0,1-.27.232.7.7,0,0,1-.213.039.436.436,0,0,1-.309-.155.613.613,0,0,1-.135-.444A.665.665,0,0,1,25.24,20.888Zm.483.328a1.112,1.112,0,0,0-.019-.29c-.019-.058-.058-.077-.116-.1-.058,0-.1.019-.135.1a2.053,2.053,0,0,0-.058.27Z" transform="translate(-13.706 -20.289)" fill="#282a67"/>
            <path id="Path_284" data-name="Path 284" d="M25.983,21.821a.145.145,0,0,0,.1-.019.1.1,0,0,0,.039-.077l.019-.058.1-.618v-.1a.207.207,0,0,0-.1-.058v-.058l.444.077-.039.174a1.062,1.062,0,0,1,.174-.135.287.287,0,0,1,.174-.039.22.22,0,0,1,.116.058.163.163,0,0,1,.039.135.106.106,0,0,1-.058.1.128.128,0,0,1-.116.019.122.122,0,0,1-.116-.1.134.134,0,0,0-.058-.077.106.106,0,0,0-.1.039.291.291,0,0,0-.077.155l-.077.444a.191.191,0,0,0,.019.155.3.3,0,0,0,.135.058v.058l-.618-.1Z" transform="translate(-13.56 -20.276)" fill="#282a67"/>
            <path id="Path_285" data-name="Path 285" d="M26.882,22.035h.1a.207.207,0,0,0,.058-.1l.328-1.14a.086.086,0,0,0,0-.1.267.267,0,0,0-.077-.058l.019-.058.425.116-.174.638a.347.347,0,0,1,.174-.077.328.328,0,0,1,.193,0,.354.354,0,0,1,.193.135.4.4,0,0,1,.019.27l-.155.541a.122.122,0,0,0,0,.116.267.267,0,0,0,.077.058l-.019.058-.522-.155.019-.058h.1c.019,0,.039-.039.058-.1l.155-.541a.34.34,0,0,0,.019-.116c0-.058-.039-.077-.077-.1s-.077,0-.135.019-.077.039-.077.058l-.174.6c-.019.058-.019.077,0,.1a.267.267,0,0,0,.077.058l-.019.058-.541-.155Z" transform="translate(-13.416 -20.316)" fill="#282a67"/>
            <path id="Path_286" data-name="Path 286" d="M28.477,21.525a.5.5,0,0,1,.406,0,.511.511,0,0,1,.29.309.643.643,0,0,1-.019.425.568.568,0,0,1-.29.309.5.5,0,0,1-.406,0,.511.511,0,0,1-.29-.309.643.643,0,0,1,.019-.425A.563.563,0,0,1,28.477,21.525Zm-.1.773a.16.16,0,0,0,.077.193.122.122,0,0,0,.174-.039,1,1,0,0,0,.174-.328.869.869,0,0,0,.116-.367.188.188,0,0,0-.077-.174c-.077-.039-.135,0-.213.077a1.476,1.476,0,0,0-.155.309A1.306,1.306,0,0,0,28.381,22.3Z" transform="translate(-13.214 -20.173)" fill="#282a67"/>
            <path id="Path_287" data-name="Path 287" d="M29.505,22a.509.509,0,0,1,.406.058.53.53,0,0,1,.251.328.65.65,0,0,1-.077.425.562.562,0,0,1-.328.27.5.5,0,0,1-.406-.039.53.53,0,0,1-.251-.328.566.566,0,0,1,.077-.425A.532.532,0,0,1,29.505,22Zm-.193.753a.2.2,0,0,0,.058.213.149.149,0,0,0,.193-.019,2.056,2.056,0,0,0,.367-.657.147.147,0,0,0-.058-.174c-.077-.039-.135-.019-.213.058a1.044,1.044,0,0,0-.193.29A2.321,2.321,0,0,0,29.312,22.758Z" transform="translate(-13.063 -20.092)" fill="#282a67"/>
            <path id="Path_288" data-name="Path 288" d="M30.485,22.636a.426.426,0,0,1,.348.058.224.224,0,0,1,.1.135.332.332,0,0,1,.019.155l.27-.328c.039-.039.058-.077.039-.116,0-.019-.039-.058-.1-.116l.039-.039.406.309-.831,1.063a.125.125,0,0,0-.039.1.177.177,0,0,0,.058.1l-.039.039c-.116-.077-.174-.116-.213-.135s-.1-.039-.193-.077l.1-.116c-.058,0-.116.019-.155,0a.288.288,0,0,1-.174-.077.433.433,0,0,1-.155-.29.718.718,0,0,1,.522-.657Zm-.058.927c.058-.019.1-.019.1-.039l.348-.444c.019-.019.019-.039.019-.1a.146.146,0,0,0-.077-.135c-.058-.058-.155-.039-.232.039a.579.579,0,0,0-.174.193,2.367,2.367,0,0,0-.155.232.2.2,0,0,0,.019.232A.205.205,0,0,0,30.427,23.564Z" transform="translate(-12.923 -20.028)" fill="#282a67"/>
            <path id="Path_289" data-name="Path 289" d="M31.9,23.817a.449.449,0,0,1,.367.174.487.487,0,0,1,.116.386.554.554,0,0,1-.213.367.624.624,0,0,1-.406.155.449.449,0,0,1-.367-.174.487.487,0,0,1-.116-.386.561.561,0,0,1,.213-.386A.729.729,0,0,1,31.9,23.817Zm-.425.657a.162.162,0,0,0,.193.251,1.786,1.786,0,0,0,.309-.232,1.385,1.385,0,0,0,.251-.27.175.175,0,0,0,0-.193c-.058-.058-.116-.058-.213-.019a1.52,1.52,0,0,0-.27.213A1.175,1.175,0,0,0,31.473,24.474Z" transform="translate(-12.713 -19.799)" fill="#282a67"/>
            <path id="Path_290" data-name="Path 290" d="M31.817,25.091c.039.039.058.058.077.058a.191.191,0,0,0,.116-.039l.618-.444-.077-.116.077-.058.077.116.077-.058a.942.942,0,0,1,.251-.116.38.38,0,0,1,.367.174.371.371,0,0,1,.077.232.188.188,0,0,1-.077.174.128.128,0,0,1-.116.019.106.106,0,0,1-.1-.058c-.019-.039-.039-.058-.019-.1a.1.1,0,0,1,.039-.077c.019-.019.039-.019.077-.019h.058c.019-.019.019-.019.019-.039s-.019-.019-.019-.039c-.019-.039-.039-.039-.077-.058a.257.257,0,0,0-.135.058l-.251.174.116.174-.077.058-.116-.174-.58.406c-.058.039-.1.077-.1.116a.386.386,0,0,0,.058.155l-.039.039-.367-.522Z" transform="translate(-12.632 -19.701)" fill="#282a67"/>
            <path id="Path_291" data-name="Path 291" d="M33.887,25.483l.6,1.275-.425.213-.019-.058a.492.492,0,0,0,.232-.309.756.756,0,0,0-.058-.251l-1.1.522a.278.278,0,0,0-.135.116c-.019.039,0,.1.039.193l-.058.019-.348-.753.058-.019a.353.353,0,0,0,.116.155c.039.019.1,0,.174-.039l1.1-.522a.67.67,0,0,0-.155-.213.384.384,0,0,0-.386-.019l-.019-.058Z" transform="translate(-12.499 -19.532)" fill="#282a67"/>
            <path id="Path_292" data-name="Path 292" d="M33.91,26.988a.491.491,0,0,1,.251.27.476.476,0,0,1,.019.232.4.4,0,0,1-.116.193.674.674,0,0,1-.174.116c-.039.019-.058.039-.077.039l-.193-.56a2.108,2.108,0,0,0-.213.116.248.248,0,0,0-.1.29.347.347,0,0,0,.1.135,1.108,1.108,0,0,1,.135.077l-.019.058a.666.666,0,0,1-.309-.155,1.7,1.7,0,0,1-.116-.193.437.437,0,0,1,.019-.348.65.65,0,0,1,.367-.29A.638.638,0,0,1,33.91,26.988Zm-.116.56a2.187,2.187,0,0,0,.27-.116A.119.119,0,0,0,34.1,27.3c-.019-.058-.058-.077-.135-.077a.969.969,0,0,0-.27.058Z" transform="translate(-12.425 -19.299)" fill="#282a67"/>
            <path id="Path_293" data-name="Path 293" d="M33.754,28.073a2.572,2.572,0,0,1,.29.425l.174-.039c.058-.019.116-.039.135-.077a.205.205,0,0,0,.019-.155.148.148,0,0,0-.039-.1c-.019-.019-.039-.039-.058-.019h-.019l-.019.019-.019.019-.039.039a.06.06,0,0,1-.039.019.128.128,0,0,1-.116-.019.106.106,0,0,1-.058-.1.128.128,0,0,1,.019-.116.193.193,0,0,1,.1-.077.211.211,0,0,1,.232.077.508.508,0,0,1,.135.29.7.7,0,0,1,0,.348.336.336,0,0,1-.251.193l-.541.116a.067.067,0,0,0-.039.019c0,.019-.019.019-.019.039a.019.019,0,0,0,.019.019.067.067,0,0,0,.039.019l-.039.039a.419.419,0,0,1-.135-.116c-.019-.039-.039-.058-.039-.1a.154.154,0,0,1,.116-.213.738.738,0,0,1-.174-.174c-.019-.039-.039-.1-.058-.135a.348.348,0,0,1,.019-.193q.029-.087.174-.116C33.58,27.957,33.677,28,33.754,28.073Zm-.193.464a.267.267,0,0,0,.077.058l.328-.077a.346.346,0,0,0-.1-.135.284.284,0,0,0-.232-.077.207.207,0,0,0-.1.058.116.116,0,0,0-.019.077A.071.071,0,0,0,33.561,28.537Z" transform="translate(-12.386 -19.147)" fill="#282a67"/>
            <path id="Path_294" data-name="Path 294" d="M33.566,28.989c0,.039.019.077.039.077a.163.163,0,0,0,.116.039l.676-.039a.114.114,0,0,0,.1-.039c.019-.019.019-.058.039-.1h.058l.019.444-.174.019a.735.735,0,0,1,.116.1.429.429,0,0,1,.1.213.311.311,0,0,1-.058.213c-.019.039-.058.058-.116.1v.019a.84.84,0,0,1,.135.116.291.291,0,0,1,.077.213.389.389,0,0,1-.058.213.378.378,0,0,1-.232.116l-.58.039c-.058,0-.1.019-.1.039a.145.145,0,0,0-.019.1h-.058L33.6,30.3h.058c0,.039.019.077.039.077a.145.145,0,0,0,.1.019l.56-.039a.225.225,0,0,0,.135-.039c.039-.019.039-.058.039-.1a.167.167,0,0,0-.058-.116c-.039-.039-.058-.058-.077-.058l-.618.039a.393.393,0,0,0-.1.019c-.019.019-.019.039-.019.1H33.6l-.039-.541h.058c0,.039.019.077.039.077a.145.145,0,0,0,.1.019l.56-.039a.279.279,0,0,0,.135-.039c.039-.019.039-.058.039-.116a.209.209,0,0,0-.058-.135c-.039-.039-.058-.058-.077-.058l-.618.039a.393.393,0,0,0-.1.019c-.019.019-.019.039-.019.1h-.058l-.039-.56Z" transform="translate(-12.352 -18.981)" fill="#282a67"/>
            <path id="Path_295" data-name="Path 295" d="M33.953,30.735v.058a.437.437,0,0,0-.251.116.248.248,0,0,0-.077.193.163.163,0,0,0,.039.135c.019.039.058.039.1.058a.142.142,0,0,0,.116-.039.267.267,0,0,0,.058-.077l.1-.174c.058-.077.1-.155.155-.174a.225.225,0,0,1,.193-.039.275.275,0,0,1,.232.116.409.409,0,0,1,.077.27.455.455,0,0,1-.039.155.813.813,0,0,1-.039.1v.039a.067.067,0,0,0,.039.019v.058l-.328-.019v-.058a.309.309,0,0,0,.193-.1.188.188,0,0,0,.077-.174c0-.058,0-.1-.039-.116s-.058-.039-.1-.039a.116.116,0,0,0-.077.019c-.039.019-.058.058-.1.116L34.2,31.3a.353.353,0,0,1-.116.155.308.308,0,0,1-.232.077.334.334,0,0,1-.232-.116.379.379,0,0,1-.1-.29.174.174,0,0,1,.019-.1.275.275,0,0,1,.039-.116l.019-.039a.019.019,0,0,1,.019-.019v-.019c0-.019,0-.019-.019-.039,0-.019-.019-.019-.058-.039V30.7Z" transform="translate(-12.352 -18.698)" fill="#282a67"/>
            <path id="Path_296" data-name="Path 296" d="M34.489,31.647l.058.019c.019.019.039.058.058.077.039.039.058.1.1.135a2.316,2.316,0,0,0,.213.232l-.019.058-.386-.077-.039.213-.1-.019.039-.213-.7-.116h-.077a.062.062,0,0,0-.058.058c0,.039,0,.058.019.077s.039.058.077.077l-.039.058a.84.84,0,0,1-.135-.116.293.293,0,0,1-.058-.251.175.175,0,0,1,.058-.135.211.211,0,0,1,.232-.077l.753.135Z" transform="translate(-12.367 -18.547)" fill="#282a67"/>
            <path id="Path_297" data-name="Path 297" d="M34.289,32.588a.423.423,0,0,1,.058.367.4.4,0,0,1-.116.193.268.268,0,0,1-.193.1.4.4,0,0,1-.213,0,.837.837,0,0,1-.1-.019l.155-.58a1.189,1.189,0,0,0-.251-.019.283.283,0,0,0-.251.174.212.212,0,0,0,0,.155,1.109,1.109,0,0,0,.077.135l-.039.039a.631.631,0,0,1-.174-.309.418.418,0,0,1,.019-.213.481.481,0,0,1,.213-.27.608.608,0,0,1,.464-.039A.9.9,0,0,1,34.289,32.588Zm-.406.406a.585.585,0,0,0,.29.039.122.122,0,0,0,.116-.1.129.129,0,0,0-.058-.155,1.033,1.033,0,0,0-.251-.116Z" transform="translate(-12.399 -18.446)" fill="#282a67"/>
            <path id="Path_298" data-name="Path 298" d="M33.215,33.114a.086.086,0,0,0,0,.1c0,.019.039.039.077.058l.058.019.58.232a.21.21,0,0,0,.1.019c.019,0,.039-.039.077-.077l.058.019-.155.406-.174-.058a1.789,1.789,0,0,1,.1.193.268.268,0,0,1,0,.174.159.159,0,0,1-.1.1.212.212,0,0,1-.155,0,.193.193,0,0,1-.1-.077.123.123,0,0,1,0-.116A.2.2,0,0,1,33.7,34a.813.813,0,0,0,.1-.039c.019-.019,0-.058-.019-.116a.246.246,0,0,0-.135-.1l-.406-.155c-.077-.019-.116-.039-.155-.019a.3.3,0,0,0-.077.116l-.058-.019.232-.58Z" transform="translate(-12.446 -18.314)" fill="#282a67"/>
            <path id="Path_299" data-name="Path 299" d="M33.147,34.143l-.039.058a.327.327,0,0,0-.27,0,.358.358,0,0,0-.155.135c-.019.058-.039.1-.019.135a.151.151,0,0,0,.077.077.123.123,0,0,0,.116,0,.146.146,0,0,0,.077-.039l.155-.116a.787.787,0,0,1,.213-.116.238.238,0,0,1,.193.039.266.266,0,0,1,.155.193.283.283,0,0,1-.039.27c-.019.039-.058.077-.1.135-.039.039-.058.077-.077.077,0,.019-.019.039,0,.039,0,.019.019.019.019.039l-.019.039-.29-.155.019-.058a.4.4,0,0,0,.213,0,.2.2,0,0,0,.135-.116.245.245,0,0,0,.019-.116.267.267,0,0,0-.058-.077.086.086,0,0,0-.1,0c-.039,0-.077.039-.135.077l-.116.077a.847.847,0,0,1-.174.1.323.323,0,0,1-.232-.019.346.346,0,0,1-.174-.193.362.362,0,0,1,.039-.309c.019-.019.039-.058.058-.077s.039-.058.077-.1l.039-.039.019-.019v-.058c0-.019-.019-.039-.039-.058l.019-.058Z" transform="translate(-12.512 -18.184)" fill="#282a67"/>
          </g>
          <g id="Group_919" data-name="Group 919" transform="translate(15.926 37.095)">
            <path id="Path_300" data-name="Path 300" d="M25.072,39.107a.522.522,0,1,1-.522.522.5.5,0,0,1,.522-.522Zm-.019.1a.425.425,0,1,0,.425.425.413.413,0,0,0-.425-.425Zm-.077.715h-.1v-.541c.058,0,.116-.019.193-.019a.327.327,0,0,1,.174.039.117.117,0,0,1,.058.116.145.145,0,0,1-.1.135h0c.058.019.077.058.1.135s.019.116.039.135h-.1c-.019-.019-.019-.058-.039-.135a.106.106,0,0,0-.116-.077h-.058v.213Zm0-.309h.058c.077,0,.135-.019.135-.077s-.039-.077-.135-.077h-.077v.155Z" transform="translate(-24.549 -39.107)" fill="#282a67"/>
          </g>
          <path id="Path_301" data-name="Path 301" d="M26.939,10.027c0-.019-.039-.039-.077-.039a12.929,12.929,0,0,0-1.932-.077h-.464c-.5.019-.985.058-1.488.077a.146.146,0,0,0-.077.039c0,.019.019.058.039.058.444.328.483.425.927.753a.085.085,0,0,0,.1.019c.019,0,.039-.039.058-.077a.418.418,0,0,1,.155-.174,1.114,1.114,0,0,1,1.8.251c.019,0,.039-.019.058-.019.444-.328.425-.425.869-.753C26.92,10.066,26.939,10.046,26.939,10.027Z" transform="translate(-8.887 -6.685)" fill="#fff"/>
        </g>
        <g id="Group_930" data-name="Group 930" transform="translate(7.619 22.875)">
          <g id="Group_923" data-name="Group 923">
            <g id="Group_921" data-name="Group 921" transform="translate(0.155 0.174)">
              <path id="Path_302" data-name="Path 302" d="M19.164,34.65a.132.132,0,0,1-.135-.135V28.641H17.657a.132.132,0,0,1-.135-.135V27.134A.132.132,0,0,1,17.657,27h3.265a.132.132,0,0,1,.135.135v7.38a.132.132,0,0,1-.135.135Z" transform="translate(-17.522 -26.999)" fill="#fff"/>
            </g>
            <g id="Group_922" data-name="Group 922">
              <path id="Path_303" data-name="Path 303" d="M20.943,27.139v7.4H19.185V28.51H17.678V27.139h3.265m0-.29H17.678a.3.3,0,0,0-.29.29V28.51a.3.3,0,0,0,.29.29h1.237v5.738a.3.3,0,0,0,.29.29h1.758a.3.3,0,0,0,.29-.29v-7.4a.347.347,0,0,0-.309-.29Z" transform="translate(-17.388 -26.849)" fill="#fbb731"/>
            </g>
          </g>
          <g id="Group_926" data-name="Group 926" transform="translate(4.823)">
            <g id="Group_924" data-name="Group 924" transform="translate(0.161 0.135)">
              <path id="Path_304" data-name="Path 304" d="M24.7,34.79a6.41,6.41,0,0,1-1.6-.213,4.348,4.348,0,0,1-1.352-.6.145.145,0,0,1-.039-.193l.676-1.314a.193.193,0,0,1,.1-.077h.039c.039,0,.058,0,.077.019a2.991,2.991,0,0,0,.966.464,3.67,3.67,0,0,0,1.121.174,1.743,1.743,0,0,0,.966-.232.64.64,0,0,0,.309-.58c0-.193,0-.773-1.275-.773h-.792a.132.132,0,0,1-.135-.135v-1.14a.148.148,0,0,1,.039-.1l1.333-1.488h-2.9a.132.132,0,0,1-.135-.135V27.1a.132.132,0,0,1,.135-.135H27.52a.132.132,0,0,1,.135.135v1.1a.148.148,0,0,1-.039.1l-1.546,1.72a2.6,2.6,0,0,1,1.352.715,2.086,2.086,0,0,1,.56,1.507,2.283,2.283,0,0,1-.367,1.275,2.572,2.572,0,0,1-1.121.927A4.138,4.138,0,0,1,24.7,34.79Z" transform="translate(-21.685 -26.965)" fill="#fff"/>
            </g>
            <g id="Group_925" data-name="Group 925">
              <path id="Path_305" data-name="Path 305" d="M27.523,27.139v1.1l-1.7,1.893a2.576,2.576,0,0,1,1.526.715,2.008,2.008,0,0,1,.522,1.391,2.216,2.216,0,0,1-.348,1.2,2.3,2.3,0,0,1-1.063.869,4.166,4.166,0,0,1-1.739.328,6,6,0,0,1-1.565-.213,4.1,4.1,0,0,1-1.314-.58l.676-1.314a3.234,3.234,0,0,0,1,.483,4.016,4.016,0,0,0,1.159.174,1.813,1.813,0,0,0,1.043-.251.816.816,0,0,0,.386-.7c0-.6-.464-.908-1.41-.908H23.91v-1.14l1.565-1.72H22.249V27.1h5.274m0-.251H22.23a.3.3,0,0,0-.29.29V28.51a.3.3,0,0,0,.29.29H24.8l-1.121,1.237a.343.343,0,0,0-.077.193v1.14a.3.3,0,0,0,.29.29h.792c1.121,0,1.121.444,1.121.618a.5.5,0,0,1-.251.464,1.641,1.641,0,0,1-.889.193,4.066,4.066,0,0,1-1.082-.155,3.061,3.061,0,0,1-.908-.444.312.312,0,0,0-.174-.058h-.058a.307.307,0,0,0-.193.155l-.676,1.314a.3.3,0,0,0,.1.367,4.526,4.526,0,0,0,1.41.638,6.84,6.84,0,0,0,1.642.213,4.476,4.476,0,0,0,1.855-.348,2.722,2.722,0,0,0,1.179-.985,2.559,2.559,0,0,0,.386-1.352,2.353,2.353,0,0,0-.6-1.6,2.468,2.468,0,0,0-1.2-.7l1.372-1.546a.343.343,0,0,0,.077-.193v-1.1a.269.269,0,0,0-.27-.29Z" transform="translate(-21.546 -26.849)" fill="#fbb731"/>
            </g>
          </g>
          <g id="Group_929" data-name="Group 929" transform="translate(10.781)">
            <g id="Group_927" data-name="Group 927" transform="translate(0.155 0.155)">
              <path id="Path_306" data-name="Path 306" d="M28.3,34.652a.117.117,0,0,1-.116-.058.17.17,0,0,1-.019-.135l2.628-5.8H28.651v1.063a.132.132,0,0,1-.135.135H26.951a.132.132,0,0,1-.135-.135V27.117a.132.132,0,0,1,.135-.135h6.067a.132.132,0,0,1,.135.135v1.1a.071.071,0,0,1-.019.058l-2.821,6.279a.129.129,0,0,1-.135.077H28.3Z" transform="translate(-26.815 -26.982)" fill="#fff"/>
            </g>
            <g id="Group_928" data-name="Group 928">
              <path id="Path_307" data-name="Path 307" d="M33.039,27.139v1.1l-2.8,6.3H28.324l2.724-6.009H28.537v1.2H26.972V27.119h6.067m0-.27H26.972a.3.3,0,0,0-.29.29v2.608a.3.3,0,0,0,.29.29h1.565a.3.3,0,0,0,.29-.29v-.908H30.6l-2.531,5.6a.269.269,0,0,0,.019.27.3.3,0,0,0,.251.135h1.913a.291.291,0,0,0,.27-.174l2.821-6.279a.245.245,0,0,0,.019-.116v-1.1a.368.368,0,0,0-.328-.328Z" transform="translate(-26.682 -26.849)" fill="#fbb731"/>
            </g>
          </g>
        </g>
        <g id="Group_934" data-name="Group 934" transform="translate(7.619 23.088)">
          <g id="Group_931" data-name="Group 931">
            <path id="Path_308" data-name="Path 308" d="M19.164,34.833a.132.132,0,0,1-.135-.135V28.824H17.657a.132.132,0,0,1-.135-.135V27.317a.132.132,0,0,1,.135-.135h3.265a.132.132,0,0,1,.135.135v7.361a.132.132,0,0,1-.135.135H19.164Z" transform="translate(-17.367 -27.008)" fill="#fff"/>
            <path id="Path_309" data-name="Path 309" d="M20.943,27.3v7.4H19.185V28.674H17.678V27.3h3.265m0-.27H17.678a.3.3,0,0,0-.29.29v1.372a.3.3,0,0,0,.29.29h1.237V34.7a.3.3,0,0,0,.29.29h1.758a.3.3,0,0,0,.29-.29V27.3a.328.328,0,0,0-.309-.27Z" transform="translate(-17.388 -27.032)" fill="#282c67"/>
          </g>
          <g id="Group_932" data-name="Group 932" transform="translate(4.823)">
            <path id="Path_310" data-name="Path 310" d="M24.7,34.957a6.41,6.41,0,0,1-1.6-.213,4.348,4.348,0,0,1-1.352-.6.145.145,0,0,1-.039-.193l.676-1.314a.193.193,0,0,1,.1-.077h.039c.039,0,.058,0,.077.019a2.991,2.991,0,0,0,.966.464,3.67,3.67,0,0,0,1.121.174,1.743,1.743,0,0,0,.966-.232.64.64,0,0,0,.309-.58c0-.193,0-.773-1.275-.773h-.792a.132.132,0,0,1-.135-.135v-1.14a.148.148,0,0,1,.039-.1l1.333-1.488h-2.9a.132.132,0,0,1-.135-.135V27.267a.132.132,0,0,1,.135-.135H27.52a.132.132,0,0,1,.135.135v1.1a.148.148,0,0,1-.039.1l-1.546,1.72a2.6,2.6,0,0,1,1.352.715,2.086,2.086,0,0,1,.56,1.507,2.283,2.283,0,0,1-.367,1.275,2.572,2.572,0,0,1-1.121.927A4.138,4.138,0,0,1,24.7,34.957Z" transform="translate(-21.524 -27.016)" fill="#fff"/>
            <path id="Path_311" data-name="Path 311" d="M27.523,27.3v1.1l-1.7,1.893a2.576,2.576,0,0,1,1.526.715,2.008,2.008,0,0,1,.522,1.391,2.216,2.216,0,0,1-.348,1.2,2.3,2.3,0,0,1-1.063.869,4.166,4.166,0,0,1-1.739.328,6,6,0,0,1-1.565-.213,4.1,4.1,0,0,1-1.314-.58l.676-1.314a3.234,3.234,0,0,0,1,.483,4.016,4.016,0,0,0,1.159.174,1.813,1.813,0,0,0,1.043-.251.816.816,0,0,0,.386-.7c0-.6-.464-.908-1.41-.908H23.91v-1.14l1.565-1.72H22.249V27.264h5.274m0-.232H22.23a.3.3,0,0,0-.29.29v1.372a.3.3,0,0,0,.29.29H24.8L23.679,30.22a.343.343,0,0,0-.077.193v1.14a.3.3,0,0,0,.29.29h.792c1.121,0,1.121.444,1.121.618a.5.5,0,0,1-.251.464,1.641,1.641,0,0,1-.889.193,4.066,4.066,0,0,1-1.082-.155,3.062,3.062,0,0,1-.908-.444.312.312,0,0,0-.174-.058h-.058a.307.307,0,0,0-.193.155l-.676,1.314a.3.3,0,0,0,.1.367,4.526,4.526,0,0,0,1.41.638,6.84,6.84,0,0,0,1.642.213,4.476,4.476,0,0,0,1.855-.348,2.722,2.722,0,0,0,1.179-.985,2.559,2.559,0,0,0,.386-1.352,2.353,2.353,0,0,0-.6-1.6,2.468,2.468,0,0,0-1.2-.7l1.372-1.546a.343.343,0,0,0,.077-.193v-1.1a.259.259,0,0,0-.27-.29Z" transform="translate(-21.546 -27.032)" fill="#282c67"/>
          </g>
          <g id="Group_933" data-name="Group 933" transform="translate(10.781)">
            <path id="Path_312" data-name="Path 312" d="M28.3,34.835a.117.117,0,0,1-.116-.058.17.17,0,0,1-.019-.135l2.628-5.8H28.651v1.063a.132.132,0,0,1-.135.135H26.951a.132.132,0,0,1-.135-.135V27.3a.132.132,0,0,1,.135-.135h6.067a.132.132,0,0,1,.135.135v1.1a.071.071,0,0,1-.019.058l-2.821,6.279a.129.129,0,0,1-.135.077H28.3Z" transform="translate(-26.661 -27.011)" fill="#fff"/>
            <path id="Path_313" data-name="Path 313" d="M33.039,27.3v1.1l-2.8,6.3H28.324l2.724-6.009H28.537v1.2H26.972V27.283h6.067m0-.251H26.972a.3.3,0,0,0-.29.29V29.93a.3.3,0,0,0,.29.29h1.565a.3.3,0,0,0,.29-.29v-.908H30.6l-2.531,5.6a.269.269,0,0,0,.019.27.3.3,0,0,0,.251.135h1.913a.291.291,0,0,0,.27-.174l2.821-6.279a.245.245,0,0,0,.019-.116v-1.1a.35.35,0,0,0-.328-.328Z" transform="translate(-26.682 -27.032)" fill="#282c67"/>
          </g>
        </g>
      </g>
    </g>
  </g>
</svg>
