<svg id="Layer_1" data-name="Layer 1" xmlns="http://www.w3.org/2000/svg" width="120.83" height="44.33" viewBox="0 0 120.83 44.33">
  <defs>
    <style>
      .cls-1 {
        fill: #1864b0;
      }
    </style>
  </defs>
  <title>top-logo-b</title>
  <g id="Group_989" data-name="Group 989">
    <path id="Path_320" data-name="Path 320" class="cls-1" d="M7.29,21.67,4.08,19.19a13.35,13.35,0,0,1,16.2-3.25v4.81a9.46,9.46,0,0,0-13,.92Z" transform="translate(-0.76 -0.78)"/>
    <path id="Path_321" data-name="Path 321" class="cls-1" d="M8,22.19C11.15,19,16.81,18.5,20.17,22l-1.25,1.18a6.59,6.59,0,0,0-4.75-1.8,7.11,7.11,0,0,0-4.66,2Z" transform="translate(-0.76 -0.78)"/>
    <path id="Path_322" data-name="Path 322" class="cls-1" d="M14.28,30.09a2.45,2.45,0,0,1-2.43-2.47h0a2.45,2.45,0,0,1,2.49-2.41h0a2.45,2.45,0,0,1,2.43,2.46h0a2.46,2.46,0,0,1-2.48,2.42Z" transform="translate(-0.76 -0.78)"/>
    <path id="Path_323" data-name="Path 323" class="cls-1" d="M18,24a6.92,6.92,0,0,1-.79.74,4.38,4.38,0,0,0-5.76.07,5.54,5.54,0,0,1-.86-.65A5.3,5.3,0,0,1,18,24Z" transform="translate(-0.76 -0.78)"/>
    <path id="Path_324" data-name="Path 324" class="cls-1" d="M26.23,27V4.43h1.39L24.13.78,20.64,4.43H22V31.86a4.09,4.09,0,0,1-.41,1.75,5.34,5.34,0,0,1-2.13,2.26,9.49,9.49,0,0,1-7,1.31A9.37,9.37,0,0,1,5,26.25a8.62,8.62,0,0,1,.39-1.43c.16-.46.38-.89.59-1.37L2.76,21a.6.6,0,0,0-.24.3A13.12,13.12,0,0,0,1,30.22a13.09,13.09,0,0,0,6.41,9.33,13.2,13.2,0,0,0,9.17,1.71A12.88,12.88,0,0,0,24.42,37a6.81,6.81,0,0,0,1.82-4.72c0-1.26,0-2.51,0-3.77Z" transform="translate(-0.76 -0.78)"/>
    <g id="Group_988" data-name="Group 988">
      <path id="Path_325" data-name="Path 325" class="cls-1" d="M32.87,15.68a2,2,0,1,1-2-2,2,2,0,0,1,2,2Zm-3.7,3.81V33.26h3.39V19.49Z" transform="translate(-0.76 -0.78)"/>
      <path id="Path_326" data-name="Path 326" class="cls-1" d="M44.71,23.19A4.66,4.66,0,0,0,41.32,22c-1.61,0-2.51.51-2.51,1.37s.81,1.39,2.56,1.5c2.59.17,5.88.75,5.88,4.4,0,2.42-2,4.5-5.9,4.5A8,8,0,0,1,35,31.28l1.67-2.42a7.55,7.55,0,0,0,4.73,1.92c1.28,0,2.48-.64,2.48-1.64s-.78-1.33-2.72-1.45c-2.59-.19-5.68-1.14-5.68-4.25s3.28-4.29,5.79-4.29A7.35,7.35,0,0,1,46.61,21Z" transform="translate(-0.76 -0.78)"/>
      <path id="Path_327" data-name="Path 327" class="cls-1" d="M49.56,39V19.54h3.17L53,21.43a5.49,5.49,0,0,1,4.45-2.2,6.87,6.87,0,0,1,7.05,6.68c0,.17,0,.33,0,.5,0,4-2.52,7.18-6.92,7.18-1.45,0-3.59-.44-4.57-1.94V39ZM61.05,26.42a3.72,3.72,0,0,0-3.54-3.9h-.35a3.73,3.73,0,0,0-3.89,3.55,2,2,0,0,0,0,.35A3.8,3.8,0,0,0,57,30.31h.18a3.81,3.81,0,0,0,3.89-3.72v-.17Z" transform="translate(-0.76 -0.78)"/>
      <path id="Path_328" data-name="Path 328" class="cls-1" d="M78,19.54h3.25V33.26H78l-.17-2c-.77,1.62-2.91,2.4-4.45,2.42-4.06,0-7.06-2.47-7.06-7.29s3.14-7.21,7.15-7.18a5,5,0,0,1,4.36,2.23Zm-8.24,6.85a3.94,3.94,0,0,0,3.68,4.17c.12,0,.25,0,.38,0,5.34,0,5.34-8.32,0-8.32A3.91,3.91,0,0,0,69.73,26c0,.14,0,.27,0,.41Z" transform="translate(-0.76 -0.78)"/>
      <path id="Path_329" data-name="Path 329" class="cls-1" d="M88.43,15.68v3.89h3.78v2.92H88.4v5.93a1.71,1.71,0,0,0,1.44,1.93,1.93,1.93,0,0,0,.34,0,3.91,3.91,0,0,0,1.64-.42l1,2.9a7.51,7.51,0,0,1-2.81.58c-3,.11-4.92-1.58-4.92-5V22.49H82.48V19.57H85V16Z" transform="translate(-0.76 -0.78)"/>
      <path id="Path_330" data-name="Path 330" class="cls-1" d="M106.65,31.51a7.11,7.11,0,0,1-5.29,2.17c-4,0-7.29-2.39-7.29-7.26s3.31-7.27,7.29-7.27a6.54,6.54,0,0,1,5,2l-2.14,2.25a4.22,4.22,0,0,0-2.76-1.09,3.86,3.86,0,0,0-4,3.76c0,.1,0,.21,0,.31a3.75,3.75,0,0,0,3.46,4h.43a4.14,4.14,0,0,0,3-1.14Z" transform="translate(-0.76 -0.78)"/>
      <path id="Path_331" data-name="Path 331" class="cls-1" d="M111.69,13.79v7.62A5,5,0,0,1,116,19.35c3.89,0,5.62,2.64,5.62,6.68v7.23H118.2v-7.2c0-2.51-1.31-3.57-3.11-3.57a3.52,3.52,0,0,0-3.4,3.63v7.14H108.3V13.79Z" transform="translate(-0.76 -0.78)"/>
    </g>
  </g>
  <g>
    <path class="cls-1" d="M73,41.59a3.35,3.35,0,0,1-.1.87,2,2,0,0,1-.31.66,1.48,1.48,0,0,1-.51.42,1.62,1.62,0,0,1-.68.14,1.69,1.69,0,0,1-.33,0,1.25,1.25,0,0,1-.3-.12,2.17,2.17,0,0,1-.29-.2,3.89,3.89,0,0,1-.3-.29v.46a.14.14,0,0,1,0,.06l-.05,0-.1,0h-.28l-.09,0s0,0,0,0a.14.14,0,0,1,0-.06V38a.08.08,0,0,1,0-.05.1.1,0,0,1,0,0,.29.29,0,0,1,.11,0H70a.29.29,0,0,1,.11,0,.1.1,0,0,1,0,0,.08.08,0,0,1,0,.05V40.2a2.1,2.1,0,0,1,.32-.29,1.66,1.66,0,0,1,.3-.19,1.76,1.76,0,0,1,.3-.1,1.55,1.55,0,0,1,.32,0,1.36,1.36,0,0,1,.69.17,1.29,1.29,0,0,1,.47.43,1.76,1.76,0,0,1,.26.64A3.14,3.14,0,0,1,73,41.59Zm-.7.07a3.31,3.31,0,0,0-.05-.55,1.69,1.69,0,0,0-.15-.48.85.85,0,0,0-.29-.33.72.72,0,0,0-.44-.13,1.26,1.26,0,0,0-.27,0l-.26.12a2.6,2.6,0,0,0-.28.23,3.77,3.77,0,0,0-.3.34v1.49a2.85,2.85,0,0,0,.54.52.92.92,0,0,0,.54.18.78.78,0,0,0,.44-.12,1,1,0,0,0,.3-.33,1.67,1.67,0,0,0,.16-.46A2.24,2.24,0,0,0,72.26,41.66Z" transform="translate(-0.76 -0.78)"/>
    <path class="cls-1" d="M75.73,43.6,75.24,45a.21.21,0,0,1-.13.11,1.19,1.19,0,0,1-.31,0h-.17l-.1,0a.08.08,0,0,1,0-.07.13.13,0,0,1,0-.1L75,43.6,75,43.55a.35.35,0,0,1,0-.08l-1.33-3.56a.5.5,0,0,1,0-.14.11.11,0,0,1,0-.08l.11,0h.4l.11,0a.1.1,0,0,1,.06,0,.59.59,0,0,0,0,.08l1.06,3h0l1-3a.21.21,0,0,1,.06-.1l.11,0H77a.23.23,0,0,1,.11,0,.12.12,0,0,1,0,.08.39.39,0,0,1,0,.13Z" transform="translate(-0.76 -0.78)"/>
    <path class="cls-1" d="M82.82,43.29a.57.57,0,0,1,0,.14.3.3,0,0,1,0,.1s0,0-.05,0a.07.07,0,0,1-.06,0H80.31a.28.28,0,0,1-.18-.06.26.26,0,0,1-.09-.23v-5a.14.14,0,0,1,0-.06l.06,0,.11,0h.34l.11,0,.06,0a.13.13,0,0,1,0,.06V43h2l.05.06a.2.2,0,0,1,0,.09A.61.61,0,0,1,82.82,43.29Z" transform="translate(-0.76 -0.78)"/>
    <path class="cls-1" d="M84.38,38.51a.47.47,0,0,1-.09.33.51.51,0,0,1-.34.09.47.47,0,0,1-.33-.09.44.44,0,0,1-.09-.32.47.47,0,0,1,.09-.33.5.5,0,0,1,.34-.08.47.47,0,0,1,.33.08A.44.44,0,0,1,84.38,38.51Zm-.08,5a.14.14,0,0,1,0,.06l0,0a.29.29,0,0,1-.11,0h-.33a.29.29,0,0,1-.11,0l-.05,0a.14.14,0,0,1,0-.06V39.77a.08.08,0,0,1,0-.05.1.1,0,0,1,.05,0,.29.29,0,0,1,.11,0h.33a.29.29,0,0,1,.11,0,.1.1,0,0,1,0,0,.08.08,0,0,1,0,.05Z" transform="translate(-0.76 -0.78)"/>
    <path class="cls-1" d="M88.86,43.5a.14.14,0,0,1,0,.06l0,0a.29.29,0,0,1-.11,0h-.33a.29.29,0,0,1-.11,0l0,0a.14.14,0,0,1,0-.06V41.32a1.86,1.86,0,0,0,0-.52,1,1,0,0,0-.14-.33.59.59,0,0,0-.25-.22.78.78,0,0,0-.35-.07.88.88,0,0,0-.51.18,3,3,0,0,0-.54.53V43.5a.14.14,0,0,1,0,.06l0,0a.29.29,0,0,1-.1,0h-.34a.35.35,0,0,1-.11,0l0,0a.13.13,0,0,1,0-.06V39.77a.07.07,0,0,1,0-.05l0,0,.09,0h.31l.09,0,0,0a.07.07,0,0,1,0,.05v.49a2.35,2.35,0,0,1,.63-.51,1.35,1.35,0,0,1,.63-.17,1.47,1.47,0,0,1,.63.13,1.15,1.15,0,0,1,.41.34,1.31,1.31,0,0,1,.23.49,3.31,3.31,0,0,1,.07.68Z" transform="translate(-0.76 -0.78)"/>
    <path class="cls-1" d="M93.25,43.5a.08.08,0,0,1,0,0,.1.1,0,0,1,0,0,.35.35,0,0,1-.11,0h-.36l-.13,0-.08,0,0-.06-1.58-2.07V43.5a.13.13,0,0,1,0,.06l-.06,0s-.06,0-.1,0h-.34s-.08,0-.1,0l-.06,0a.13.13,0,0,1,0-.06V38a.07.07,0,0,1,0-.05.09.09,0,0,1,.06,0s.06,0,.1,0h.34s.08,0,.1,0l.06,0a.07.07,0,0,1,0,.05v3.38l1.41-1.55a.46.46,0,0,1,.07-.07l.09,0,.12,0h.35l.11,0a.09.09,0,0,1,.06,0,.08.08,0,0,1,0,.06.22.22,0,0,1,0,.1A.33.33,0,0,1,93,40l-1.36,1.35,1.52,2,.08.11A.29.29,0,0,1,93.25,43.5Z" transform="translate(-0.76 -0.78)"/>
    <path class="cls-1" d="M97,41.47a.29.29,0,0,1-.08.23.28.28,0,0,1-.19.07H94.32a2.34,2.34,0,0,0,.06.56,1,1,0,0,0,.21.43A.83.83,0,0,0,95,43a1.53,1.53,0,0,0,.57.1,2.26,2.26,0,0,0,.47-.05l.36-.09.25-.1a.41.41,0,0,1,.15,0h0a.08.08,0,0,1,0,0,.31.31,0,0,0,0,.08v.22a.2.2,0,0,0,0,.07s0,0,0,.06l0,.05-.14.07a1.21,1.21,0,0,1-.29.1,1.93,1.93,0,0,1-.41.09,2.6,2.6,0,0,1-.5,0,2.2,2.2,0,0,1-.8-.13,1.37,1.37,0,0,1-.58-.38,1.63,1.63,0,0,1-.36-.63,3,3,0,0,1-.12-.89,2.84,2.84,0,0,1,.12-.86,2,2,0,0,1,.36-.65,1.54,1.54,0,0,1,.57-.41,1.93,1.93,0,0,1,1.49,0,1.45,1.45,0,0,1,.5.37,1.59,1.59,0,0,1,.3.56,2.61,2.61,0,0,1,.09.69Zm-.69-.2a1.2,1.2,0,0,0-.24-.84.91.91,0,0,0-.75-.31,1,1,0,0,0-.44.09.92.92,0,0,0-.32.26.91.91,0,0,0-.2.36,1.32,1.32,0,0,0-.08.44Z" transform="translate(-0.76 -0.78)"/>
    <path class="cls-1" d="M101.36,43.5a.14.14,0,0,1,0,.06.11.11,0,0,1,0,0l-.09,0h-.29l-.09,0a.11.11,0,0,1,0,0,.07.07,0,0,1,0-.06V43a2.68,2.68,0,0,1-.61.49,1.38,1.38,0,0,1-.7.18,1.42,1.42,0,0,1-.7-.16,1.29,1.29,0,0,1-.47-.43,2,2,0,0,1-.26-.64,3.79,3.79,0,0,1-.08-.77,3.35,3.35,0,0,1,.1-.87,1.84,1.84,0,0,1,.31-.66,1.36,1.36,0,0,1,.5-.42,1.52,1.52,0,0,1,.69-.15,1.21,1.21,0,0,1,.6.15,2,2,0,0,1,.54.42V38a.07.07,0,0,1,0,0,.1.1,0,0,1,.06,0l.11,0h.33l.1,0a.1.1,0,0,1,.06,0,.08.08,0,0,1,0,0Zm-.69-2.62a2.43,2.43,0,0,0-.54-.53.92.92,0,0,0-.54-.18.72.72,0,0,0-.44.13,1,1,0,0,0-.3.32,1.67,1.67,0,0,0-.16.46,2.38,2.38,0,0,0,0,.53,3.39,3.39,0,0,0,0,.55,1.69,1.69,0,0,0,.15.48.85.85,0,0,0,.29.33.7.7,0,0,0,.44.13.8.8,0,0,0,.27,0,1.19,1.19,0,0,0,.26-.12,2.56,2.56,0,0,0,.27-.23,3.6,3.6,0,0,0,.31-.34Z" transform="translate(-0.76 -0.78)"/>
    <path class="cls-1" d="M105.9,43.5a.13.13,0,0,1,0,.06l-.06,0s0,0-.09,0h-.31s-.07,0-.09,0l0,0a.13.13,0,0,1,0-.06V43a2.35,2.35,0,0,1-.63.51,1.34,1.34,0,0,1-.63.16,1.48,1.48,0,0,1-.63-.12,1.15,1.15,0,0,1-.41-.34,1.35,1.35,0,0,1-.23-.5,3.4,3.4,0,0,1-.06-.69V39.77a.07.07,0,0,1,0-.05s0,0,.06,0l.1,0h.33l.11,0s0,0,.06,0a.07.07,0,0,1,0,.05v2.17a2.5,2.5,0,0,0,0,.53.84.84,0,0,0,.15.33.64.64,0,0,0,.24.22.78.78,0,0,0,.35.07.88.88,0,0,0,.51-.18,3,3,0,0,0,.54-.53V39.77a.08.08,0,0,1,0-.05s0,0,0,0l.11,0h.33l.11,0s0,0,0,0a.08.08,0,0,1,0,.05Z" transform="translate(-0.76 -0.78)"/>
    <path class="cls-1" d="M110.46,43.5a.14.14,0,0,1,0,.06l0,0a.29.29,0,0,1-.1,0H110s-.08,0-.1,0l-.06,0a.13.13,0,0,1,0-.06V41.32a2.34,2.34,0,0,0,0-.52,1.26,1.26,0,0,0-.15-.33.54.54,0,0,0-.25-.22.75.75,0,0,0-.35-.07.88.88,0,0,0-.51.18,3,3,0,0,0-.54.53V43.5a.13.13,0,0,1,0,.06l-.06,0s-.06,0-.1,0h-.34s-.08,0-.1,0l-.06,0a.13.13,0,0,1,0-.06V39.77a.07.07,0,0,1,0-.05s0,0,0,0l.1,0h.3l.09,0a.12.12,0,0,1,0,0,.08.08,0,0,1,0,.05v.49a2.49,2.49,0,0,1,.62-.51,1.36,1.36,0,0,1,.64-.17,1.46,1.46,0,0,1,.62.13,1.16,1.16,0,0,1,.64.83,2.73,2.73,0,0,1,.07.68Z" transform="translate(-0.76 -0.78)"/>
    <path class="cls-1" d="M112.55,38.51a.47.47,0,0,1-.75.33.44.44,0,0,1-.09-.32.47.47,0,0,1,.09-.33.48.48,0,0,1,.34-.08.33.33,0,0,1,.41.4Zm-.08,5a.13.13,0,0,1,0,.06l-.06,0s-.06,0-.1,0H112a.29.29,0,0,1-.11,0l0,0a.14.14,0,0,1,0-.06V39.77a.08.08,0,0,1,0-.05.07.07,0,0,1,0,0,.29.29,0,0,1,.11,0h.33s.08,0,.1,0a.09.09,0,0,1,.06,0,.07.07,0,0,1,0,.05Z" transform="translate(-0.76 -0.78)"/>
    <path class="cls-1" d="M117.29,41.59a2.75,2.75,0,0,1-.12.84,1.75,1.75,0,0,1-.36.66,1.72,1.72,0,0,1-.59.44,2.16,2.16,0,0,1-.83.15,2.22,2.22,0,0,1-.81-.13,1.78,1.78,0,0,1-.57-.4,1.87,1.87,0,0,1-.34-.64,3.11,3.11,0,0,1-.11-.84,2.75,2.75,0,0,1,.12-.84,1.75,1.75,0,0,1,.36-.66,1.5,1.5,0,0,1,.59-.43,2.15,2.15,0,0,1,.83-.16,2.21,2.21,0,0,1,.81.14,1.64,1.64,0,0,1,.57.4,1.73,1.73,0,0,1,.34.63A3.11,3.11,0,0,1,117.29,41.59Zm-.71,0a3.45,3.45,0,0,0,0-.57,1.33,1.33,0,0,0-.19-.47.93.93,0,0,0-.35-.33,1.28,1.28,0,0,0-.55-.11,1.22,1.22,0,0,0-.53.1,1.19,1.19,0,0,0-.36.31,1.62,1.62,0,0,0-.21.46,2.22,2.22,0,0,0-.07.59,2.65,2.65,0,0,0,.06.58,1.23,1.23,0,0,0,.19.47.91.91,0,0,0,.35.32,1.15,1.15,0,0,0,.55.12,1.21,1.21,0,0,0,.52-.11,1,1,0,0,0,.37-.3,1.56,1.56,0,0,0,.21-.47A2.74,2.74,0,0,0,116.58,41.64Z" transform="translate(-0.76 -0.78)"/>
    <path class="cls-1" d="M121.59,43.5a.13.13,0,0,1,0,.06l-.06,0s-.06,0-.1,0h-.34s-.08,0-.1,0l0,0a.07.07,0,0,1,0-.06V41.32a2.34,2.34,0,0,0,0-.52.84.84,0,0,0-.15-.33.56.56,0,0,0-.24-.22.78.78,0,0,0-.35-.07.93.93,0,0,0-.52.18,2.64,2.64,0,0,0-.53.53V43.5a.14.14,0,0,1,0,.06l0,0a.29.29,0,0,1-.11,0h-.33a.29.29,0,0,1-.11,0l0,0a.14.14,0,0,1,0-.06V39.77a.43.43,0,0,1,0-.05l0,0,.1,0h.3l.1,0s0,0,0,0a.08.08,0,0,1,0,.05v.49a2.35,2.35,0,0,1,.63-.51,1.35,1.35,0,0,1,.63-.17,1.47,1.47,0,0,1,.63.13,1.25,1.25,0,0,1,.41.34,1.29,1.29,0,0,1,.22.49,2.73,2.73,0,0,1,.07.68Z" transform="translate(-0.76 -0.78)"/>
  </g>
</svg>
