<svg xmlns="http://www.w3.org/2000/svg" width="124.237" height="41.815" viewBox="0 0 124.237 41.815">
  <g id="Group_989" data-name="Group 989" transform="translate(-2298.217 1777.226)">
    <path id="Path_320" data-name="Path 320" d="M2337.429-1621.474l-3.3-2.556a13.728,13.728,0,0,1,16.659-3.335v4.944a9.676,9.676,0,0,0-6.88-2.19A9.647,9.647,0,0,0,2337.429-1621.474Z" transform="translate(-32.496 -134.274)" fill="#1864b0"/>
    <path id="Path_321" data-name="Path 321" d="M2376.172-1571.114c3.275-3.264,9.1-3.792,12.554-.228l-1.29,1.221a6.753,6.753,0,0,0-4.881-1.854,7.227,7.227,0,0,0-4.788,2.1Z" transform="translate(-70.55 -184.105)" fill="#1864b0"/>
    <path id="Path_322" data-name="Path 322" d="M2420.771-1507.944a2.516,2.516,0,0,1-2.495-2.544,2.52,2.52,0,0,1,2.558-2.482,2.515,2.515,0,0,1,2.494,2.545A2.511,2.511,0,0,1,2420.771-1507.944Z" transform="translate(-108.654 -239.154)" fill="#1864b0"/>
    <path id="Path_323" data-name="Path 323" d="M2411.99-1539.69a7.615,7.615,0,0,1-.808.766,4.5,4.5,0,0,0-5.927.069,5.724,5.724,0,0,1-.889-.672A5.453,5.453,0,0,1,2411.99-1539.69Z" transform="translate(-96.066 -213.637)" fill="#1864b0"/>
    <path id="Path_324" data-name="Path 324" d="M2324.41-1750.271v-23.206h1.425l-3.589-3.749-3.588,3.749h1.425v23.206l0,1.572q0,1.712,0,3.424a4.216,4.216,0,0,1-.413,1.8,5.508,5.508,0,0,1-2.19,2.32,9.731,9.731,0,0,1-7.166,1.351,9.636,9.636,0,0,1-7.307-12.713c.168-.471.394-.916.61-1.406l-3.339-2.488a.586.586,0,0,0-.249.305,13.488,13.488,0,0,0-1.6,9.143,13.513,13.513,0,0,0,6.591,9.6,13.617,13.617,0,0,0,9.428,1.756,13.276,13.276,0,0,0,8.1-4.358,7.04,7.04,0,0,0,1.872-4.855q-.01-1.94-.01-3.881Z" transform="translate(0)" fill="#1864b0"/>
    <g id="Group_988" data-name="Group 988" transform="translate(2327.109 -1763.952)">
      <path id="Path_325" data-name="Path 325" d="M2606.489-1635.452a2.06,2.06,0,0,1-4.12,0A2.06,2.06,0,0,1,2606.489-1635.452Zm-3.8,3.919v14.161h3.49v-14.161Z" transform="translate(-2602.369 1637.49)" fill="#1864b0"/>
      <path id="Path_326" data-name="Path 326" d="M2678.9-1574.241a4.756,4.756,0,0,0-3.49-1.259c-1.659,0-2.575.515-2.575,1.4,0,.915.83,1.43,2.632,1.545,2.66.172,6.036.772,6.036,4.52,0,2.489-2.031,4.634-6.064,4.634a8.252,8.252,0,0,1-6.522-2.517l1.716-2.489a7.739,7.739,0,0,0,4.863,1.974c1.316.029,2.546-.658,2.546-1.688,0-.973-.8-1.373-2.8-1.488-2.661-.2-5.836-1.173-5.836-4.377,0-3.261,3.375-4.406,5.95-4.406a7.575,7.575,0,0,1,5.493,1.859Z" transform="translate(-2662.599 1584.003)" fill="#1864b0"/>
      <path id="Path_327" data-name="Path 327" d="M2826.418-1557.175v-20h3.261l.229,1.945a5.6,5.6,0,0,1,4.577-2.26,7.054,7.054,0,0,1,7.238,7.381c0,4.119-2.6,7.381-7.123,7.381-1.487,0-3.69-.458-4.692-2v7.552Zm11.815-12.93a3.828,3.828,0,0,0-4-4.005,3.828,3.828,0,0,0-4,4.005,3.91,3.91,0,0,0,4,4A3.91,3.91,0,0,0,2838.232-1570.105Z" transform="translate(-2805.135 1583.186)" fill="#1864b0"/>
      <path id="Path_328" data-name="Path 328" d="M3019.965-1577.447h3.347v14.1h-3.29l-.172-2.06c-.8,1.659-3,2.46-4.577,2.489-4.177.029-7.266-2.546-7.266-7.5,0-4.863,3.232-7.409,7.352-7.381a5.177,5.177,0,0,1,4.491,2.288Zm-8.468,7.037a4.04,4.04,0,0,0,4.177,4.291c5.492,0,5.492-8.554,0-8.554A4.016,4.016,0,0,0,3011.5-1570.41Z" transform="translate(-2969.474 1583.461)" fill="#1864b0"/>
      <path id="Path_329" data-name="Path 329" d="M3188.79-1616.033v4.005h3.891v3h-3.919v6.093a1.751,1.751,0,0,0,1.831,2,3.987,3.987,0,0,0,1.688-.429l.973,2.975a7.792,7.792,0,0,1-2.889.6c-3.061.115-5.063-1.63-5.063-5.149v-6.093h-2.632v-3h2.632v-3.633Z" transform="translate(-3127.543 1618.071)" fill="#1864b0"/>
      <path id="Path_330" data-name="Path 330" d="M3321.172-1565.688a7.257,7.257,0,0,1-5.436,2.231c-4.091,0-7.495-2.46-7.495-7.466s3.4-7.466,7.495-7.466a6.7,6.7,0,0,1,5.092,2.088l-2.2,2.317a4.283,4.283,0,0,0-2.832-1.116,3.967,3.967,0,0,0-4.062,4.177,3.842,3.842,0,0,0,4,4.119,4.24,4.24,0,0,0,3.09-1.173Z" transform="translate(-3241.189 1584.003)" fill="#1864b0"/>
      <path id="Path_331" data-name="Path 331" d="M3465.613-1636.511v7.838a5.208,5.208,0,0,1,4.406-2.117c4,0,5.779,2.718,5.779,6.866v7.438h-3.49v-7.409c0-2.574-1.344-3.662-3.2-3.662a3.615,3.615,0,0,0-3.49,3.862v7.209h-3.49v-20.025Z" transform="translate(-3380.452 1636.604)" fill="#1864b0"/>
    </g>
  </g>
</svg>
